<svg id="Layer_1" data-name="Layer 1" xmlns="http://www.w3.org/2000/svg" viewBox="0 0 1012.51 942.06"><defs><style>.cls-1{fill:#bababa;}.cls-2{fill:#6f6f6f;}.cls-3{fill:#707070;}.cls-4{fill:#3e4140;}.cls-5{fill:#404241;}.cls-6{fill:#3f4241;}.cls-7{fill:#414342;}.cls-8{fill:#404342;}.cls-9{fill:#414443;}.cls-10{fill:#424443;}.cls-11{fill:#414343;}.cls-12{fill:#424544;}.cls-13{fill:#434544;}.cls-14{fill:#434545;}.cls-15{fill:#404242;}.cls-16{fill:#464747;}.cls-17{fill:#474848;}.cls-18{fill:#444645;}</style></defs><path class="cls-1" d="M461.15,547.8c5.06-3.95,7-10,10.32-15.16,3.7-5.81,9.69-8.77,15.53-11.8,2.74-1.43,5.74-2.35,8.53-3.71a13.38,13.38,0,0,0,7.07-8.42c3.21-11,6.61-22,8.91-33.21,3.69-18,6.68-36.17,9.73-54.31A119.84,119.84,0,0,1,542,371.34a28.64,28.64,0,0,1,1.83-2.5c3.94-4.37,5.39-9.29,5.39-15.33,0-12.4,1.79-24.66,8.4-35.53,2.8-4.6,2.51-9.25,2-14.14-1.56-14.43-2.31-28.91-.31-43.34,1-7.43,5-13.75,9.53-19.57a70.66,70.66,0,0,1,16.61-15.14c6.46-4.3,13.45-5.78,21.14-5.23,5.89.42,11.94.9,17.69-.05a36.58,36.58,0,0,0,13.63-5.67c6.57-4.32,12.52-9.57,18.78-14.36,2.87-2.19,3.86-5.27,4.2-8.6.54-5.33.92-10.67,1.31-16a6,6,0,0,0-2.41-5.41c-3-2.47-2.87-6.2-3.17-9.61-.26-2.95,0-5.94,0-9.61l-3.09,2.89c-1.12-1.61-2.26-3-3.16-4.58-3.68-6.33-6.47-13-6.8-20.42A15.06,15.06,0,0,1,644,125c.59-2.34,2-3.37,4.42-2.3q1.83,9.36,3.65,18.71l1,.11a31.14,31.14,0,0,0,1.11-4.85c.31-4.6.22-9.24.68-13.82.29-2.85.57-6.14,2.12-8.33,3.17-4.48,4.33-9.27,4.65-14.53.33-5.47,2.85-7.61,8.37-7.71,4.32-.08,8.64-.36,13-.59,3-.16,6-.66,8.92-.55,6.1.22,12.18.85,18.28,1.13,4.64.21,6.59,1.85,7.5,6.39.86,4.29,1.06,9.06,3.16,12.68,3.06,5.27,4,10.64,4.09,16.43.07,3.67.3,7.33.62,11a10.83,10.83,0,0,0,1.15,2.89l1-.24c.2-1.16.4-2.32.61-3.47q1.4-7.57,2.8-15.16c2.17-1.14,4-.49,4.42,2.1a26,26,0,0,1,0,8.07A47.37,47.37,0,0,1,726.16,154L723,151.16c0,1.29,0,1.94,0,2.58-.3,4.2-.55,8.41-1,12.6a4.21,4.21,0,0,1-1.17,2.81c-4.56,3.26-3.47,8-3.29,12.38.16,3.84.86,7.65,1.22,11.49.51,5.56,4.83,8.47,8.52,11.43C733,209,739.17,213,745.31,217c5.84,3.8,12.43,4.24,19.23,3.94,8.29-.36,16.91-2.11,24.63,2.23A69.08,69.08,0,0,1,804,233.75c4.68,4.63,8.43,10.27,12.17,15.76,3.42,5,4.7,10.88,4.83,16.87.19,8.87.22,17.74,0,26.6-.14,5.44-1,10.85-1.36,16.28a10,10,0,0,0,.82,5.13c5,9.41,8.48,19.29,9.41,29.95.42,4.75.68,9.54.72,14.31a9.29,9.29,0,0,0,2.08,5.92c8.85,11.69,16.77,24,20.92,38.18,2.61,8.89,4.13,18.12,5.87,27.25,2.72,14.28,4.83,28.69,7.94,42.88,2.67,12.19,6.21,24.21,9.73,36.19a13.28,13.28,0,0,0,8.33,8.62c6.58,2.6,12.91,5.7,18.41,10.3,3.89,3.25,6.07,7.61,8.25,12,1.27,2.56,2.52,5,5.25,6.42.49.24.73,1,1.09,1.51a14.56,14.56,0,0,1-7.88-5.89c-3.36-4.73-7.15-9.14-10.8-13.65a7.06,7.06,0,0,0-1.74-1c1.47,4.89,2.67,9.42,4.21,13.82a19.92,19.92,0,0,0,3.33,6.17c3.36,4,6.67,8.32,12.18,9.5,5,1.06,5.47.55,5.23-4.42a10.49,10.49,0,0,1,0-1.12c2.55,1.1,3.34,2.71,2.7,5.62-.51,2.34-2.39,2.44-4.2,2.33-5.83-.34-10.84-2.29-14.08-7.5-.2-.32-.32-.79-.61-.94-1.54-.8-3.11-1.53-4.68-2.28a42.61,42.61,0,0,0-1.3,4.4c-.77,4.07,1.51,7.26,3.28,10.55,4.14,7.71,8.37,15.36,12.52,23a16.84,16.84,0,0,1,1.6,3.91c.45,1.82.33,3.57-1.75,4.54s-3.76.69-5-1.12c-2.09-3-4-6.18-6-9.18-3.5-5-7.1-9.94-10.67-14.89-.25-.35-.69-.57-1.59-.62.63,2.35,1.11,4.76,1.93,7.05,2.79,7.79,5.73,15.52,8.54,23.3a12.43,12.43,0,0,1,1.09,4.89c-.11,1.49-.85,3.65-1.93,4.14s-3.55-.25-4.34-1.28a66.93,66.93,0,0,1-7.58-11.44c-3.1-6.32-5.54-13-8.28-19.46-.35-.82-.82-1.58-1.23-2.37l-.75.19c.06.74.08,1.49.18,2.23,1.23,9.59,2.54,19.18,3.64,28.78.22,2,.65,4.6-2.31,5.38-1.72.45-4.08-2-4.8-4.79,0-.18.23-.45.35-.67.27.37.45.88.81,1.09,1.14.67,2.35,1.21,3.53,1.8a18.2,18.2,0,0,0,1.13-3.2,10,10,0,0,0-.16-3.08c-1.06-7.27-2.11-14.54-3.23-21.79-.63-4.06-1.4-8.09-2.14-12.32-1.62.23-2.81.49-4,.55-2.37.12-3,1.12-2.45,3.49,1,3.93,1.67,7.92,2.43,11.9,1.31,6.83,2.58,13.66,3.87,20.49-1.05-3.32-2.32-6.6-3.12-10-1.53-6.59-2.76-13.25-4.24-19.85-.21-.93-1.15-1.7-1.75-2.55-.56.86-1.5,1.68-1.59,2.59-.48,4.58-.67,9.19-1.09,13.77a51.48,51.48,0,0,1-1.22,8.33c-.33,1.28-1.68,2.3-2.57,3.44-.92-1-2.43-2-2.68-3.15-1-4.76-2.22-9.61-2.25-14.43-.05-8.8-2.35-17-4.54-25.43-2.56-9.78-4.32-19.78-6.22-29.73-.37-2,.22-4.11.37-6.17a50.92,50.92,0,0,0-5.7-26.75c-9.52-19.13-19-38.26-28.82-57.25a124.92,124.92,0,0,1-12.9-39.47c-.79-5.48-.86-11.08-1.86-16.51-.65-3.5-1.62-7.46-3.82-10.07-6.59-7.85-9.39-17.27-12.45-26.66a58.55,58.55,0,0,1-2-7.93c-.39-2.22-1.5-3.3-4.35-3.47-.39,3-.62,6.1-1.23,9.13-1.56,7.71-3,15.45-5.05,23.05-.94,3.56-3.52,6.69-4.51,10.24-2.69,9.68-1.81,19.6-1.24,29.46.35,6.2.71,12.4,1.26,18.58,1,11.41,1.85,22.86,3.39,34.2.83,6.07,3.08,11.94,4.5,17.94,2.71,11.42,5.72,22.79,7.79,34.33s3.26,23,4.52,34.6c.76,7,1.24,14.07,1.31,21.12.14,15.94.34,31.9-.22,47.82-.44,12.09-1.65,24.19-3.22,36.19a173.45,173.45,0,0,1-5.22,23.87c-1.08,3.91-3.53,7.42-5.31,11.14a7.34,7.34,0,0,0-.74,2.62c-.77,13.31,2.37,26.3,3.2,39.48a44.42,44.42,0,0,1-.59,12.09c-1.5,6.87-.28,13.4.85,20.1a250.68,250.68,0,0,1,3.26,25.7c.64,10.05,1.16,20.21.42,30.22-1.11,15.07-2.87,30.14-5.26,45.06-2.17,13.51-5.83,26.77-8.29,40.24a91.17,91.17,0,0,0-.18,28.7c1.08,8.07,1.42,16-.23,24.12-.74,3.57-.16,7.46.17,11.17.1,1.14,1.22,2.3,2.11,3.24,4.45,4.72,9,9.36,13.49,14.07,3.39,3.57,3.77,8.33,4.46,12.81.44,2.86-2.06,3.4-4.79,3.47.8,5.06-3.06,4.83-6.25,5.47-.81.17-1.89.19-2.35.72-2.18,2.44-4.62,3.39-7.82,2.22-.48-.18-1.35.44-1.92.86-2.93,2.19-5.85,3.21-9.3.87-.7-.48-2.56-.11-3.31.53-4,3.43-7.78,3.32-11.52-.27-5.82-5.59-8.11-12.07-6.49-20.15,1.07-5.34,0-10.71-1.78-15.84a29.2,29.2,0,0,1-1.06-12.5c.32-3.51-.43-7.11-.41-10.67a92.22,92.22,0,0,1,.66-11.39c.77-5.84,2.52-11.63,2.69-17.47.3-10.51.15-21.07-.6-31.54-.73-10.1-2.25-20.15-3.85-30.16a53.41,53.41,0,0,0-3.79-12.1,61.28,61.28,0,0,1-4.62-19.92,196.18,196.18,0,0,1,1-38c1.42-11.27,3-22.52,4.48-33.78a16.94,16.94,0,0,0-1.9-10.67c-2.87-5.14-3.76-10.8-4.15-16.54-.35-5.16-.52-10.33-.61-15.51a26.32,26.32,0,0,1,.57-5.87c1.55-7.23-1-14-2.53-20.77-6-26.2-12.27-52.35-18.12-78.58-1.19-5.36-1.21-11-1.41-16.56-.23-6.69-.15-13.39,0-20.09.05-3.64.45-7.27.74-11.66-4,2.52-7.86,3.22-11.85-.68.33,4.64.85,8.41.83,12.18-.06,10.64.11,21.32-.7,31.92-.52,6.68-2.52,13.27-4,19.85-3.48,15-7.11,30-10.6,45-2.38,10.26-4.74,20.52-6.85,30.84a27.33,27.33,0,0,0,0,7.82c1.32,13.7,1.5,27.26-4.8,40-2.26,4.58-1.09,9.22-.49,13.85,1.22,9.4,2.73,18.76,3.65,28.18.88,9,1.55,18,1.6,27a142.24,142.24,0,0,1-1.72,21.61c-.61,4.1-2.43,8.08-4.05,12a83.59,83.59,0,0,0-5.73,24.95c-1.11,12.65-2,25.34-2.29,38a89,89,0,0,0,3.42,28.17c.93,3.08.32,6.65.33,10,0,4.68.09,9.38-.17,14a45.84,45.84,0,0,1-1.41,8.85c-1.56,6.08-2.38,12.14-1.37,18.42,1,6-.36,11.43-5.09,15.67a16.12,16.12,0,0,0-1.77,1.83c-3.15,3.81-7.53,4.14-11.06.69-1.24-1.21-2.37-1.9-3.92-.75-3.27,2.43-6.08,1.35-9.22-1-.68-.5-1.86-.31-2.8-.48a35.43,35.43,0,0,1-5.28-1c-1.87-.64-3.55-2.22-5.41-2.41-3.24-.34-5-1.55-4.58-4.87-5.18-1.29-5.41-2-4.41-7.32a23.35,23.35,0,0,1,7.61-13.46c2.72-2.47,5.08-5.35,7.89-7.7,4.83-4,5.67-9.35,4.55-14.88a76.69,76.69,0,0,1-.88-23.8c.64-5.88,1-11.81,1.18-17.73.29-11-3-21.51-5.2-32.2-3-14.8-5.6-29.7-7.62-44.67-1.33-9.85-1.46-19.88-1.9-29.84a191.13,191.13,0,0,1,5-53.72c1.22-5.06-.47-9.86-.5-14.78,0-7-.07-14.09.4-21.1.48-7.19,1.67-14.33,2.37-21.51a62.54,62.54,0,0,0,0-8.1,4.52,4.52,0,0,0-.63-2.39c-5.65-8-8-17.28-9.33-26.68-1.82-12.91-3.35-25.91-4-38.92-.89-17.39-1.19-34.84-1-52.26.08-9.64,1.51-19.27,2.51-28.89.83-7.93,1.73-15.87,2.94-23.75s2.54-15.6,4.32-23.27a190.85,190.85,0,0,1,5.79-19.71c2.56-7.29,3.36-14.83,4.05-22.41,1.18-12.83,2.51-25.65,3.17-38.5.58-11.25,1.88-22.58-.51-33.79a20.68,20.68,0,0,0-2.52-6.56c-4.33-7-5.59-14.89-6.87-22.77-.76-4.71-1.35-9.45-2-14.23-2.79-.48-3.59,1.18-4.26,3.37-2.31,7.55-4.48,15.17-7.26,22.55a39.32,39.32,0,0,1-6.25,10.59c-3.61,4.44-4.72,9.43-5.32,14.86-.87,7.93-1.65,15.91-3.29,23.69-2.56,12.14-7.78,23.3-13.79,34.15-5.14,9.29-9.78,18.86-14.47,28.39-4.35,8.86-8.47,17.84-12.7,26.77a45.35,45.35,0,0,0-4.29,23.84c.69,7.63-.77,15-2.61,22.24-1.68,6.66-3.9,13.2-5.17,19.93-1.42,7.54-2,15.23-3,22.85a97.38,97.38,0,0,1-2,10.76c-.28,1.12-1.75,1.93-2.67,2.87-.8-.94-2-1.77-2.31-2.85a50.46,50.46,0,0,1-1.39-8c-.48-5-.7-9.94-1.2-14.89-.1-.95-1-1.81-1.52-2.72a8.08,8.08,0,0,0-1.5,2.31c-1.53,6.77-2.87,13.59-4.44,20.35-.95,4.12-2.12,8.19-3.36,12.23a7.6,7.6,0,0,1-2,3.31,2.65,2.65,0,0,1-4.68-1.75c-1.16-7.87.83-15.5,2-23.18.56-3.63,1.23-7.24,1.85-10.86l-.85-.27c-.86,2-1.69,4-2.61,6-3.86,8.25-7.69,16.52-11.69,24.7a10.14,10.14,0,0,1-3.4,3.7c-1,.7-2.83,1.21-3.83.77a4,4,0,0,1-1.83-3.32,82.24,82.24,0,0,1,2.9-10.51c2.69-8.11,5.53-16.18,8.27-24.27a10.44,10.44,0,0,0,0-2.27c-2.85,3.57-5.39,6.38-7.51,9.47-3.29,4.82-6.24,9.86-9.45,14.73-.74,1.13-1.83,2.52-3,2.77a4.81,4.81,0,0,1-4-1.17,4.73,4.73,0,0,1-.52-4.12c1.65-3.88,3.7-7.6,5.65-11.36,3.57-6.83,7.45-13.52,10.61-20.54,1-2.31.38-5.45.24-8.2,0-.4-1.72-1.24-2.17-1a11.11,11.11,0,0,0-3.91,3c-3.53,5.11-8.52,7.12-14.44,7.39-2.13.09-3.88-.78-4.07-3s.22-4.37,3-5m269.46-316.4v-.27c-3.66.22-7.32.59-11,.61-7.89.06-12.69,4.36-16,11.06a54.7,54.7,0,0,0-5.16,25.26c.14,8.65,1.14,17.28,1.55,25.94.45,9.73,5.34,16.46,13.69,20.89,12.4,6.57,25.14,5.87,38.11,1.79,9.65-3,15.79-9.52,19.62-18.57,4.28-10.14,5.26-20.8,4.34-31.62-.51-6-1-12.23-4.7-17.26-8.17-11.13-19.32-17.05-33.14-17.82C730.84,234.73,728.38,234.85,725.93,234.85Zm-72.57-.29c-10.67-.48-20.53,1.71-29.58,7.69-7.77,5.14-13.13,11.61-14.6,21.11-1.91,12.32-1.56,24.42,2.67,36.24,3.52,9.82,9.71,17.06,20,20.39,13.33,4.33,26.43,5,39.12-2,6.58-3.62,11.54-8.79,12.52-16.48,1.57-12.23,3-24.52,1.81-36.9-.71-7.19-2.39-14.11-6-20.45-3.06-5.37-7.4-8.65-13.79-8.87C661.43,235.15,657.4,234.81,653.36,234.56Zm-36.71,263.1c-.39.19-.61.22-.7.35A11.93,11.93,0,0,0,614.8,500c-3.37,8.37-7.32,16.57-9.93,25.18-5,16.66-7.25,33.78-3.93,51.09,2.87,15,6,29.91,9.75,44.7,4.95,19.73,10.36,39.36,15.93,58.93,1.55,5.47,4.17,10.69,6.69,15.84.75,1.52,2.78,3.27,4.27,3.31,1.17,0,2.84-2.21,3.53-3.78a48.39,48.39,0,0,0,2.93-9.11c2.86-12.75,3.71-25.72,4-38.74.54-22-.17-44-6.26-65.32C633.75,553.88,625.1,525.9,616.65,497.66Zm146.25-.58c-1,3.75-1.73,6.95-2.71,10.07-5.63,18-11.4,35.92-17,53.91-6.88,22.14-11.55,44.68-12,68-.29,15.57,0,31.12,2.28,46.54A149.47,149.47,0,0,0,738.17,695c.48,1.65,2.48,4.06,3.67,4,1.56-.08,3.65-2,4.4-3.6,2.76-6,5.68-12,7.41-18.29q10.32-37.61,19.87-75.4c3.18-12.51,6-25.2,6.23-38.15a128.61,128.61,0,0,0-15.16-63.65C764.17,499.12,763.67,498.36,762.9,497.08ZM685.74,534c.24-2.1.56-3.77.6-5.44.41-15.44.87-30.89,1.1-46.34.19-12.91.09-25.83.11-38.74,0-5.4-.45-6.6-5.71-7.19-8.67-1-17.41-1.33-26.14-1.64-6.23-.22-6.48.28-5.73,6.35,0,.47.09.94.13,1.41,1.5,17.48,3.81,34.83,8,51.87,2.51,10.08,5.72,19.89,11.26,28.82C673.15,529.16,678.88,531.92,685.74,534Zm7.81-.1c8-2,13.81-5.8,17.6-12.61,5.11-9.16,8.2-19,10.6-29.13,4.23-17.84,6.46-36,8.07-54.2.23-2.65-1.57-3.24-3.6-3.25-6.41,0-12.83-.13-19.23.16a61.5,61.5,0,0,0-10.58,1.61c-3.86.86-4.55,1.92-4.51,5.93q.38,39.75.82,79.5C692.77,525.86,693.25,529.77,693.55,533.93ZM776,223.41l-.19.69a32.29,32.29,0,0,0-17.75,5.69,11.91,11.91,0,0,0-3.43,4c-1.49,2.83-1.08,3.29,1.82,4.59a136.33,136.33,0,0,1,13,6.17c5.34,3.09,7.7,8,7.39,14.24-.16,3.2,0,6.41,0,9.61a19.45,19.45,0,0,0,4.23,12.05c3.25,4,6.64,7.95,10,11.91,1.93,2.28,4.3,2.52,6.88,1.28a31.4,31.4,0,0,0,3.18-1.82c16-9.88,20.86-30.25,10.33-44.92-6-8.39-13.64-15.42-23.11-19.89C784.52,225.18,780.13,224.57,776,223.41Zm-173,.67a28.84,28.84,0,0,0-13.31,3.5A68.54,68.54,0,0,0,569.7,244.5c-13.77,16.67-7.18,39.34,11.7,49,3,1.56,5,1,7.25-1.59s4.29-5,6.48-7.48c4-4.53,7.21-9.47,7.47-15.75.15-3.86.09-7.73.06-11.59,0-4.9,1.8-9,5.92-11.54a114.38,114.38,0,0,1,13.29-6.76c4-1.79,4.61-3.4,1.93-6.91a8.5,8.5,0,0,0-2-1.92A34.13,34.13,0,0,0,603,224.08ZM825.37,385.46c.3,5,.25,9.44.9,13.8,1.15,7.71,1.64,15.76,4.3,23,9.24,25,19.25,49.74,29.08,74.54a101.61,101.61,0,0,0,5.42,10.85c.41.74,1.57,1.06,2.38,1.58.41-.89,1.14-1.77,1.17-2.67a33.73,33.73,0,0,0-.35-7c-2.14-11.38-4.69-22.68-6.62-34.09-2.93-17.34-7.87-34.35-8.6-52.09a39.47,39.47,0,0,0-3.12-13.07c-2.11-5.1-5.19-9.81-7.87-14.68s-5.68-9.82-10.35-13.28c-3.31-2.45-4.82-1.93-5.42,2.18C825.74,378.26,825.63,382.14,825.37,385.46Zm-271.27-1.7c-.29-2.39-.63-6.62-1.39-10.77-.45-2.47-2-3-3.85-1.43-2.63,2.22-5.43,4.53-7.26,7.38-3.87,6-7,12.49-10.74,18.6a28.25,28.25,0,0,0-4.09,12.2c-.65,6.66-.71,13.43-2,20-3.92,20.64-8.4,41.17-12.4,61.8-1,5.22-1.08,10.63-1.46,16a2.08,2.08,0,0,0,1.07,1.7,2.25,2.25,0,0,0,1.83-.93,45.35,45.35,0,0,0,3.86-6.89q11.2-28.1,22.22-56.29c3.41-8.68,7.3-17.23,10-26.13C553.2,408.15,553.56,396.84,554.1,383.76ZM765.54,727.44l-1.33-.32a36.09,36.09,0,0,0-1.43,4.61c-2.73,16-5.33,31.95-8.09,47.91-5.1,29.51-11,58.92-13.09,88.86-.59,8.36-.61,16.77-.68,25.15,0,1.66.89,3.33,1.37,5l1.54-.15C767.66,843.6,770.63,786,765.54,727.44ZM636.23,898.82c2.65-2.06,2.18-4.45,2.23-6.65.61-29.87-4.5-59.13-9.5-88.41q-6.08-35.65-12.2-71.32a47.53,47.53,0,0,0-1.53-5.29l-1,.17a16.48,16.48,0,0,0-.68,2.88c-.7,12.33-1.64,24.65-2,37-.49,18.52,1.6,36.9,3.49,55.29,2.57,25.07,9.4,49,19,72.19C634.58,896,635.4,897.28,636.23,898.82Zm7.17-12.3.34.2c.84-2.84,1.72-5.68,2.51-8.53,3.2-11.61,6-23.36,9.72-34.79,2.53-7.74,4.49-15.49,3.74-23.51-1.42-15.08-3.46-30.09-5.26-45.12-.33-2.69-.79-5.37-1.21-8.25-4.08,7.78-8,15.2-11.84,22.61-3.56,6.82-5.41,13.94-4.69,21.75C639,836.09,641.18,861.31,643.4,886.52Zm92,0,.68-.16c.39-5.26.73-10.52,1.2-15.77,1.59-17.72,3.33-35.43,4.78-53.17.58-7.16,2.12-14.54-1.15-21.46-4.7-9.92-9.66-19.72-14.51-29.58-2.62,15.58-4.91,31.1-6.47,46.7-.93,9.27-.53,18.57,2.51,27.67,3.22,9.62,5.86,19.44,8.64,29.21C732.68,875.49,734,881,735.44,886.56ZM713.8,670.08c10.16-59.7,26.76-117.58,41.89-175.85-2.24,4.13-4.19,8.37-6.08,12.63C739,531,728.34,555.17,720.71,580.51c-5.84,19.36-10.56,38.92-11,59.27A92.3,92.3,0,0,0,713.8,670.08ZM665.59,670c.34-1,.67-1.91.91-2.8,3.24-11.89,3.67-24,2.7-36.21-1.6-20.24-6.86-39.7-13.18-58.9-7.67-23.32-17.57-45.75-27.55-68.14-1.66-3.72-3.35-7.43-5.21-11.55-.17.72-.28.92-.24,1.08,1.42,5.18,2.88,10.34,4.27,15.53C641.56,562.18,656.27,615.28,665.59,670ZM759.9,417l-1.07-.19c-.81.75-1.58,1.53-2.42,2.24-3.79,3.25-7.15,7.38-11.49,9.51-7.82,3.84-9.25,10-9.46,17.72-.26,9.22-1.16,18.43-2.13,27.61a92.6,92.6,0,0,1-2.62,12.1c-.92,3.79.29,5.23,3.94,3.89a20.07,20.07,0,0,0,7.46-4.32c6.71-6.86,13.1-14.06,19.52-21.21a5.12,5.12,0,0,0,1.16-3.26c-.33-10.36-.68-20.72-1.27-31.07C761.28,425.67,760.46,421.35,759.9,417ZM620,416.39a26.22,26.22,0,0,0-1,4.09c-.84,13.62-1.65,27.25-2.34,40.88a5,5,0,0,0,1.34,3.19c6.29,7,12.54,14.07,19.13,20.8a21.05,21.05,0,0,0,7.62,4.53c3.68,1.38,5.18-.17,3.86-3.86-2.58-7.22-2.94-14.74-3.55-22.24-.71-8.82-1.48-17.64-2.15-26.46-.17-2.28-1.27-3.61-3.09-5-5.93-4.46-11.64-9.21-17.43-13.86C621.78,418,621.18,417.4,620,416.39Zm66.77-77.06c-.64-5.18-.95-10.85-2.13-16.33-1-4.56-4.2-5.81-8.46-3.81-7.93,3.72-15.74,7.68-23.65,11.44-3.48,1.66-5.09,4.41-5.86,8.07-2.21,10.53.4,20.57,2.82,30.64.37,1.54,1.24,1.71,2.51,1.05,1.84-1,3.74-1.81,5.52-2.85,8.68-5.11,17.36-10.21,26-15.46a5.54,5.54,0,0,0,2.29-3.32C686.37,345.83,686.47,342.8,686.81,339.33Zm42.05,31.59c.38-.34.6-.45.65-.6,3-10.57,5.32-21.21,3.06-32.28A9.67,9.67,0,0,0,727,330.7c-7.49-3.55-14.93-7.21-22.35-10.9-6-3-9.61-1.6-10.44,5.12-.9,7.36-.86,14.84-1,22.27-.05,2.75,1.52,4.66,4.23,5.74a42,42,0,0,1,5.67,3.15c7.36,4.39,14.69,8.83,22.07,13.2A31.64,31.64,0,0,0,728.86,370.92Zm97.82-12.79.39,0c-.7-7.78-1-15.62-2.2-23.31-1.9-12.08-7.8-22.35-16.19-31.11-3.8-4-8.43-3.06-10.3,2.08-1.49,4.08-2.79,8.56-2.69,12.82.34,14.39,5.6,27.42,12.82,39.63,2.86,4.82,7.74,7.35,13.27,8.3,3.2.55,4.84-.93,4.89-4.13C826.7,361,826.68,359.55,826.68,358.13Zm-274.27-2.2.45,0c0,2.08,0,4.15,0,6.23,0,3.63,1.52,5,5.16,4.25,5.67-1.16,10.4-3.95,13.43-9a100.89,100.89,0,0,0,11.27-28.85c1.78-7.58,1.94-15.13-1.31-22.45-2.41-5.43-6.83-6.42-10.91-2.17-8,8.25-13.54,18-15.66,29.25C553.44,340.67,553.18,348.35,552.41,355.93Zm74.75,126.66-.55.41a11,11,0,0,0,.39,2.09c1,2.56,1.94,5.11,3,7.61,6.3,14.51,13,28.87,18.86,43.55,5.74,14.34,10.69,29,15.92,43.53.8,2.23,2,2.49,3.82,1.39,4-2.34,7.85-11.36,6.79-15.77a168,168,0,0,0-34.35-69C636.9,491.42,631.82,487.18,627.16,482.59Zm125.91.71-1.33-.82c-4.76,4.94-9.87,9.58-14.2,14.86a169.31,169.31,0,0,0-33.47,67.57c-1.07,4.37,2.27,13.13,6,15.84,2.44,1.75,3.54,1.49,4.58-1.33,3.24-8.85,6.35-17.74,9.61-26.58,7.56-20.5,14.89-41.11,25.17-60.48C751,489.51,751.89,486.33,753.07,483.3ZM780.3,285.13c-.78.9-1.37,1.3-1.55,1.84-3.15,9.62-6.26,19.36-3.65,29.59a209.33,209.33,0,0,0,14,39.65c4.12,8.51,8.58,16.8,14.83,24,1.47,1.69,3.09,3.24,5.57,2.16,2-.85,3.49-4.33,3-6.57a12.87,12.87,0,0,0-.91-2.37c-1.11-2.5-2.26-5-3.37-7.48-10.92-24.76-21.69-49.58-26.41-76.5A28.84,28.84,0,0,0,780.3,285.13Zm-180,.44H598.9c-.47,1.46-1.06,2.89-1.41,4.38-1.6,6.88-2.49,14-4.82,20.61-5.44,15.44-11.48,30.68-17.45,45.94-2.33,6-5.15,11.73-7.7,17.61-1.32,3.07-.44,6.6,2.1,8,2.92,1.67,4.69-.54,6.16-2.4a100,100,0,0,0,7.56-10.56c8.09-13.5,13.54-28.1,18.4-43,3.36-10.36,4.54-20.51,1.41-31Q601.73,290.35,600.26,285.57Zm72.32,145.68,0-.31c3.49,0,7-.09,10.47,0,2,.07,3-.81,3.32-2.64a51.63,51.63,0,0,0,.89-7.29c.08-6.4,0-12.8-.14-19.2,0-2-1.23-2.81-3.16-2.75-3.48.11-7-.19-10.43.36-7.52,1.21-15,2.79-22.43,4.37a3,3,0,0,0-2,1.93,48.36,48.36,0,0,0,.82,20.73,3.86,3.86,0,0,0,3.75,3.23C660,430.19,666.3,430.73,672.58,431.25Zm34.15-.31v.16c5.55-.33,11.1-.57,16.64-1,5-.39,6-1.08,6.55-6,.6-5.49.5-11,.64-16.59.06-2.57-1.16-3.91-3.88-4a33.24,33.24,0,0,1-5.29-.9C713.11,401,705,398.32,696.33,399c-3.49.3-4.15.58-4.24,4.15-.14,5.27-.16,10.56,0,15.84.07,3,.5,6,.86,9,.25,2.08,1.33,3.09,3.62,3C699.93,430.81,703.34,430.94,706.73,430.94Zm63.71,322.32-1.33.25c0,1.53-.06,3.07,0,4.59.36,7.06.89,14.11,1.11,21.16.25,8.1,1.27,16.36.13,24.28-2.67,18.63-6.2,37.14-9.81,55.62-2.34,12-5.6,23.83-8.12,35.81A34.74,34.74,0,0,0,755.28,917a32.21,32.21,0,0,0,2.94,4.41l1.3-.36a30.51,30.51,0,0,0,.12-5.56,36.16,36.16,0,0,1,.6-14.28c2.37-9.7,4.85-19.39,6.82-29.17,2.39-11.8,5.24-23.62,6.18-35.57,1.3-16.51,1.41-33.15,1.25-49.72-.1-9.75-1.67-19.49-2.68-29.22A22.44,22.44,0,0,0,770.44,753.26Zm-160.39.17-1-.06a11,11,0,0,0-.9,2.25c-.91,5.28-2.26,10.56-2.5,15.87-.56,12.79-1,25.61-.73,38.41.23,12,.6,24.17,2.31,36.06,1.89,13.21,5.38,26.18,8.15,39.26,2.31,10.9,6.59,21.55,4.24,33a1,1,0,0,0,0,.57c.29.73.62,1.46.94,2.19.66-.41,1.54-.67,2-1.26a21.64,21.64,0,0,0,2.15-4c3.5-8.31,3.54-16.83,1.51-25.51-3.85-16.41-7.91-32.78-11.27-49.29-2.51-12.35-5.2-24.85-5.74-37.38-.68-15.67.76-31.43,1.25-47.15A19.69,19.69,0,0,0,610.05,753.43Zm82.61-376.19h0c0,4.05,0,8.11,0,12.16,0,5.39.79,6.48,6.15,7.16,9.68,1.22,19.37.54,29-.6a3.17,3.17,0,0,0,2-2.32c.15-2.43-.22-4.88-.31-7.33-.24-6.73-2.91-11.91-9.09-15.13-6.85-3.57-13.6-7.33-20.39-11-4.16-2.26-7.17-.52-7.29,4.35C692.58,368.75,692.66,373,692.66,377.24Zm-6.11-5h.53c-.18-3.1-.22-6.21-.59-9.29s-3.16-4.78-5.67-3.44Q668.52,366.1,656.4,373a11.21,11.21,0,0,0-5.75,8.92c-.39,3.73-.66,7.48-1.08,11.21-.24,2.08.64,2.88,2.63,3,5.91.32,11.82,1,17.73,1a103.55,103.55,0,0,0,12.9-1.06,3.78,3.78,0,0,0,3.73-4.14C686.53,385.39,686.55,378.82,686.55,372.25ZM569.4,401.44c-.15-1.62-.22-3.6-.54-5.55-.64-3.94-2-4.73-5.72-3.2a5.36,5.36,0,0,0-2.57,2.38,29.2,29.2,0,0,0-2.08,5.84c-2,7.66-3.2,15.55-5.85,22.95-3.1,8.67-7.7,16.8-11.08,25.38-6.89,17.54-13.4,35.22-20,52.87a14.09,14.09,0,0,0-.75,4.14,2.26,2.26,0,0,0,.91,1.84,2.07,2.07,0,0,0,1.86-.73,33.77,33.77,0,0,0,3.83-6.23C537,477.37,547.12,453.89,560.7,432,566.21,423.05,569,412.59,569.4,401.44Zm240.64.43c.48,11.16,4.23,21.7,9.34,31.73,2.94,5.78,7.22,10.88,10,16.73,6.95,14.73,13.36,29.71,20,44.58,1.57,3.52,3.1,7.08,5,10.44.67,1.22,2.27,1.91,3.44,2.85.18-1.51.81-3.14.43-4.5-1-3.71-2.39-7.34-3.77-10.94-6.15-16-11.88-32.18-18.67-47.9-6-13.86-12.32-27.47-14.55-42.59a28.86,28.86,0,0,0-2.67-7.7c-1.13-2.44-3.7-2.77-5.86-2.24-1,.25-1.8,2.27-2.14,3.62A36.75,36.75,0,0,0,810,401.87Zm-210.5,190-1.51.21a16.21,16.21,0,0,0-.52,3.34c.33,6,.67,12,1.21,18,1.06,11.63,1.94,23.29,3.5,34.85a95.41,95.41,0,0,0,7.15,26.38c2.62,5.84,5.09,11.74,7.58,17.63,1.33,3.12,2.43,6.34,3.89,9.39.5,1,1.79,1.68,2.72,2.51.74-1,1.86-1.93,2.14-3a15.7,15.7,0,0,0,.65-6.41c-1.23-6.45-2.23-13-4.48-19.17-9-24.32-15-49.34-19.29-74.87C602.07,597.73,600.58,594.86,599.54,591.91Zm182.21.26-1.8-.34c-1,2.83-2.56,5.58-3,8.5A413.75,413.75,0,0,1,760,668.85c-2,5.88-4.49,11.67-5.75,17.71-1,4.77-.55,9.87-.44,14.81,0,1,1.47,1.93,2.26,2.9.85-.8,2.07-1.44,2.49-2.42,1.72-4,3.08-8.11,4.77-12.1,2.83-6.67,6.19-13.14,8.65-19.94,4.08-11.21,6-23,7.2-34.8,1.19-11.52,1.94-23.09,2.77-34.65C782.11,597.65,781.82,594.9,781.75,592.17Zm-52.87,34.35c-6.29,12.38-10.47,25.37-10.63,39.06-.16,12.93,1.12,25.88,1.93,38.82.23,3.73,3.31,4.87,6.24,2.48,2.68-2.19,5-4.87,5.23-8.42a80,80,0,0,0-.33-13.76c-1.84-15.16-3.59-30.31-3-45.61C728.46,634.9,728.69,630.71,728.88,626.52Zm-77.2-.18-1,.24c0,1-.06,1.95,0,2.91a233.52,233.52,0,0,1-1.55,46.23c-.83,6.62-1.31,13.29-1.75,20-.28,4.23,1.7,7.75,4.76,10.43,1.23,1.07,3.68,2,4.9,1.46s1.89-2.94,2.12-4.63c.41-3,0-6.05.46-9,2.38-15.21,3.05-30.4-1-45.42C656.65,641,654,633.73,651.68,626.34Zm5.57,93.37c-1.29,2.42-2.71,4.09-3.09,6-2.61,13.18-8.06,25.25-14.07,37.15-3.66,7.24-6.85,14.7-8.18,22.78-.35,2.13-1.43,4.8,1,6.06.55.29,3.22-2.39,4.15-4.11,3.43-6.39,7-12.76,9.68-19.48,4.68-11.81,8.84-23.83,13-35.85C661.1,728.2,660.74,724.11,657.25,719.71Zm64.78,0c-3.61,4.94-3.35,9.33-2,13.8A263.79,263.79,0,0,0,736.24,776c2.46,5,5.31,9.75,8.1,14.55.4.68,1.46,1,2.21,1.45a21.45,21.45,0,0,0,1.34-2.61,4.2,4.2,0,0,0-.12-1.67,62.92,62.92,0,0,0-6.59-20.93c-6.53-13.29-13.15-26.5-16-41.24C724.87,723.64,723.34,722,722,719.7Zm15.47-291a27.16,27.16,0,0,0,3.25-1.11,51.64,51.64,0,0,0,16.7-13.25,9.4,9.4,0,0,0,2.21-5c.27-6.25.11-12.52.11-19.24-7.27,6.18-14,11.77-20.52,17.55a6.11,6.11,0,0,0-1.68,4C737.39,417.14,737.5,422.68,737.5,428.7ZM619.62,390.19c0,6.26.09,11.8,0,17.33a9.42,9.42,0,0,0,3.2,7.83c4.88,4.08,10,7.94,15,11.78,1,.73,2.32,1,3.92,1.61,0-6.15.11-11.79-.08-17.42A6,6,0,0,0,640,407.4C633.54,401.78,627,396.35,619.62,390.19Zm53.81,240.7.66.18a40.71,40.71,0,0,0,1.53-5.59q2.63-20.88,5-41.77a61.86,61.86,0,0,0,.26-8.17,2.7,2.7,0,0,0-1.25-1.91c-.32-.18-1.37.49-1.78,1-3.34,4.33-6.72,8.63-9.81,13.13a7.32,7.32,0,0,0-1,4.69c.62,4.95,1.6,9.86,2.43,14.78Q671.48,619.07,673.43,630.89Zm31.73.37.7-.19c2.16-12.63,4.39-25.24,6.39-37.89a8.51,8.51,0,0,0-1.07-5.55c-3-4.47-6.34-8.67-9.64-12.91-.44-.58-1.36-.79-2.06-1.17a8.11,8.11,0,0,0-1.06,2.15,13.18,13.18,0,0,0,0,3.38c1.36,13.22,2.64,26.44,4.19,39.62C703.07,622.93,704.28,627.08,705.16,631.26Zm-133-229.6c-.25,1.52-.48,2.69-.63,3.87a96.33,96.33,0,0,1-16.23,42.89,93.48,93.48,0,0,0-6.59,10.52c-8.42,16.57-15,33.9-21,51.46a3.81,3.81,0,0,0,0,1.17,4.56,4.56,0,0,0,2-2.06c3.05-6.16,6.22-12.27,9-18.53,6.82-15.2,13.26-30.54,21.45-45.14,6.06-10.79,10.76-22.37,15.79-33.72C578.19,407,577.37,405.31,572.13,401.66Zm235.08.21c-5,3.09-6,5.17-3.94,9.85,5,11.28,10.17,22.5,15.54,33.6,3.36,6.95,7.51,13.53,10.81,20.5,6.83,14.39,13.32,28.93,20,43.4a20.12,20.12,0,0,0,1.58,2.46l.66-.3c-.22-.85-.37-1.74-.67-2.57-3.23-8.65-6.34-17.35-9.74-25.93-4.56-11.48-8.93-23.12-16.33-33.15-7.59-10.28-12.28-21.79-15.35-34C808.63,411.24,808.07,406.65,807.21,401.87Zm-188-32.35c-.19,2.52-.31,4.76-.54,7a16.37,16.37,0,0,0,6.21,15c5,4.19,9.82,8.52,14.74,12.76a20.12,20.12,0,0,0,2.25,1.37c.2-4.75.29-9,.59-13.18s-1.1-7-5-9.39C631.19,379.12,625.5,374.27,619.17,369.52Zm118.26,36.06a7.78,7.78,0,0,0,1.57-.68c5.63-4.87,11.37-9.6,16.77-14.7,2-1.87,4-4.48,4.4-7,.71-4.35.2-8.9.2-13.69a8.35,8.35,0,0,0-1.34.65c-6.72,5-13.45,10-20.13,15-.63.47-1.39,1.28-1.4,1.95C737.39,393.14,737.43,399.18,737.43,405.58ZM629.55,226.16a16,16,0,0,0,3,1.7,67.34,67.34,0,0,0,21.75,2.32c2.42-.12,4.23-1.28,4.49-3.83q.86-8.39,1.38-16.79c.06-1-.73-2-1.13-3a16.27,16.27,0,0,0-3.2,1.44c-6.34,4.66-12.58,9.48-19,14.08A73.48,73.48,0,0,1,629.55,226.16Zm120,.53c-.34-.66-.38-.9-.51-1a119,119,0,0,1-26.25-18.37c-1.85-1.75-3.47-1-3.4,1.62a160.8,160.8,0,0,0,1.06,16.27c.53,4.17,1.79,5.15,6.08,4.94,6.08-.3,12.14-1,18.19-1.72C746.31,228.26,747.86,227.31,749.5,226.69Zm-107.74,107a19.53,19.53,0,0,0-2.71,1.55c-4.47,3.88-8.88,7.84-13.34,11.72-2,1.71-1.83,3.41,0,5,3.86,3.28,7.76,6.51,11.77,9.61.93.72,2.36.81,3.56,1.19.4-1.29,1.15-2.59,1.15-3.88,0-5.26-.29-10.51-.41-15.77C641.71,340.2,641.76,337.29,641.76,333.72Zm95.66,47.35,1.13.43a23.13,23.13,0,0,0,2.44-1.22c3.71-2.4,7.54-4.66,11.07-7.33,9.65-7.28,8.16-4,4.72-15.61l-.09-.27c-.43-1.68-1.3-1.83-2.67-.88-4.4,3.08-8.87,6.06-13.24,9.17-.95.68-2.18,1.68-2.3,2.66C737.93,372.34,737.74,376.71,737.42,381.07Zm.32-47.14c0,4.79.06,9,0,13.2s-.44,8.47-.41,12.71c0,3.2,1.34,4,3.79,2.2,4.45-3.29,8.66-6.92,12.9-10.48,1.61-1.35,1.57-2.84-.07-4.29-4.44-3.93-8.83-7.92-13.29-11.84A15.58,15.58,0,0,0,737.74,333.93ZM623.41,355c-1.13,3.52-2.12,6.62-3.12,9.71a3,3,0,0,0,1.3,3.89c5.66,3.88,11.26,7.85,16.91,11.74a26.12,26.12,0,0,0,3.39,1.49c-.25-4.68-.34-8.66-.74-12.61a5.07,5.07,0,0,0-1.77-3.28C634.36,362.37,629.19,359,623.41,355Zm146.75-34.51c-4.74,10.33-15,10.77-23.38,15.46,3.46,3.21,6.62,6.26,9.9,9.15,2.94,2.58,3.91,2.61,6-.79,2.85-4.73,5.18-9.77,7.75-14.67C771.83,326.94,771.05,324.28,770.16,320.53ZM632.86,336c-8.82-4.66-18.81-5.27-23.7-14.62-.51,2.27-1.21,4.45-.69,6.28a49.84,49.84,0,0,0,9.47,18.14c.51.62,2.33,1.06,2.8.67C624.77,343.2,628.64,339.71,632.86,336Zm-22.92-22.59c1.07,2.85,1.42,6.95,3.64,9.09,5,4.76,11.66,6.71,18.37,8.08,1.69.35,2.36-.7,2.46-2.29.17-2.56-1.26-3.95-3.35-5a65.13,65.13,0,0,1-16.67-12c-.76-.78-2-1-3.06-1.56ZM769,312c-.15-.39-.55-1.37-.95-2.35-1.05.5-2.37.74-3.12,1.52a63.7,63.7,0,0,1-16.56,12.09c-.75.4-1.84.77-2,1.4a33.08,33.08,0,0,0-1,5c1.27.2,2.69.86,3.8.51,3.94-1.22,7.77-2.8,11.65-4.22C767,323.71,768.59,318.6,769,312Zm-159.27,27c-2.5,6.94,1.66,21.82,7.71,26.72.95-3.59,2-7,2.7-10.47.27-1.3.36-3.14-.34-4.06C616.66,347.1,613.19,343.17,609.75,339.07Zm160.19-.39c-3.7,4.46-7.06,8.47-10.35,12.53A2.56,2.56,0,0,0,759,353c.86,4.23,1.84,8.44,2.89,13.14A33.73,33.73,0,0,0,769.94,338.68Zm-13.7,153.86-.16.67a1.37,1.37,0,0,0,.35,0s.06-.17,0-.24A2.08,2.08,0,0,0,756.24,492.54Z" transform="translate(-453.46 -68.75)"/><path class="cls-1" d="M1001,547.88c0-.18,0-.46.13-.53,5-2.94,6.5-8.31,9.12-12.9,3.59-6.28,9.43-9.83,15.55-13,3-1.55,6.22-2.69,9.27-4.16,4.67-2.24,7.19-6.34,8.43-11.1,3.71-14.27,7.52-28.53,10.67-42.93,2.54-11.63,4.46-23.41,6.15-35.19,1.49-10.47,3.58-20.74,7.39-30.62a127.66,127.66,0,0,1,16.26-29,35,35,0,0,0,3.12-4.35,13.19,13.19,0,0,0,1.66-5.16c.42-10.14.79-20.29,4-30a40.41,40.41,0,0,1,3.64-8.84c3.23-5.16,3.57-10.52,3.17-16.43-.78-11.25-.87-22.55-1.21-33.84-.39-12.95,5.14-23.39,13.72-32.63,5.62-6.05,11.7-11.4,19.41-14.64,4.68-2,9.55-2.27,14.61-2,6.27.33,12.67.83,18.82-.1,4.46-.67,9-3,12.78-5.58,6.73-4.59,12.91-10,19.36-15a9.28,9.28,0,0,0,3.55-6.81c.56-6,1.09-12,1.26-18,0-1.48-1.07-3.28-2.16-4.47-2.71-3-3-6.64-3.33-10.25a59.33,59.33,0,0,1,.18-7,10.93,10.93,0,0,0-.34-1.89l-2.78,2.45c-3.71-3.84-5.76-8.45-7.43-13.23-1.74-5-3.55-10-2.24-15.4.5-2.1,1.68-3.32,4-3.07a14.06,14.06,0,0,0,1.2,3.68c1,1.56,2.2,3.54,3.78,4.15a22.26,22.26,0,0,1,10.91,9c2,3.15,3.8,6.5,5.56,9.83,1.43,2.74,3.26,4.22,6.65,4.1,7.34-.25,14.7-.07,22.05-.07,9.67,0,9.67,0,14.11-8.55,3.1-6,6.71-11.53,13.4-13.86,3.08-1.07,4.18-3.21,4.95-5.92.18-.61.39-1.21.59-1.81,2.91-.93,4.78.11,4.87,3.39a28,28,0,0,1-1,9.72c-1.9,5.48-4.53,10.7-6.94,16a9.85,9.85,0,0,1-1.94,2.12l-3-2.74c0,1.89,0,3.14,0,4.39-.16,3.19,0,6.45-.69,9.54-.43,2-2,3.84-3,5.78-.67,1.28-1.86,2.66-1.78,3.93.45,6.82,1.17,13.63,2,20.43a5.64,5.64,0,0,0,1.57,3.22c8.67,8.44,17.82,16.39,29.28,20.69a28.89,28.89,0,0,0,13.77,1.57c18.56-2.76,33,3.68,44.73,17.9,5,6.12,10,12.46,11,20.34,1.2,9.08,1.09,18.34,1.29,27.53.09,4.12-.39,8.26-.71,12.39-.27,3.55-.93,7.1-.91,10.65A18.69,18.69,0,0,0,1361,316c1.78,4.45,4.2,8.68,5.59,13.24a90.37,90.37,0,0,1,3.14,15.41c.62,5,.47,10.14.79,15.21a6.47,6.47,0,0,0,1.13,3.31c9.6,12.89,18.29,26.34,22.59,42,2.51,9.11,3.8,18.56,5.57,27.87,2.75,14.47,5.12,29,8.26,43.41,2.36,10.82,5.47,21.49,8.65,32.11,1.39,4.64,4.72,7.74,9.57,9.58,7.11,2.7,14.09,6,19.34,11.77a40.52,40.52,0,0,1,6.07,9.41,20.75,20.75,0,0,0,7,8.31A7.27,7.27,0,0,1,1460,549c-3.65-1.49-7.12-3.14-9.54-6.55-3.14-4.43-6.51-8.7-9.86-13a22.7,22.7,0,0,0-2.75-2.51c2.63,8,3.47,16.61,9.15,23.19a6.88,6.88,0,0,1-1.61-.37c-3.91-2-3.86-2-4.62,2.25-.68,3.81.89,7,2.6,10.15,4.53,8.34,9.07,16.68,13.51,25.07a10,10,0,0,1,1.3,4.53,4,4,0,0,1-1.84,3c-1.07.52-3.39.62-3.82,0-3.25-4.83-6.18-9.88-9.21-14.86l-1.47-2c-1.55-1.7-3.11-3.38-4.62-5.1-1.14-1.29-2.22-2.62-3.32-3.94l-.75.42c1,3.39,1.77,6.83,3,10.13,2.54,7.06,5.38,14,7.88,21.06a14.87,14.87,0,0,1,.59,5.8c-.14,2.18-2.26,3.53-4,2.39s-2.93-3.09-4.36-4.68l-.53-.62c-1.85-3.06-4-6-5.49-9.21-2.95-6.4-5.52-13-8.27-19.45a1.83,1.83,0,0,0-1.51-1c.8,4.54,1.71,9.06,2.37,13.62.8,5.56,1.41,11.16,2,16.75a14.74,14.74,0,0,1-.26,3.36c-.19,1.6-.74,3.15-2.61,3.09s-3.24-1-3.26-3.13l-3-10.18a61.2,61.2,0,0,1-2-5.92c-1.39-6-2.62-12.08-4-18.11a14.44,14.44,0,0,0-.74-2l-.85-.2c-.48,1-1.28,1.87-1.38,2.86-.49,5-.68,10.09-1.21,15.12a58.15,58.15,0,0,1-1.74,8.77c-.21.8-1.45,2-2,1.88a3.38,3.38,0,0,1-2.29-2,65.6,65.6,0,0,1-1.31-7l-.12-1.91c-.45-2.48-1.32-5-1.28-7.44a68.57,68.57,0,0,0-3.49-21.47,5.1,5.1,0,0,1-.1-1.11l-1.13-4.58c-1.48-5.71-3-11.4-4.43-17.13-1.56-6.38-1.1-12.85-.94-19.37.2-8-2.05-15.61-5.54-22.82C1375,482.21,1369,469.55,1362.7,457c-4.66-9.34-9.88-18.41-14.36-27.84a101.58,101.58,0,0,1-9.48-34.64c-.4-4.49-1.09-8.95-1.48-13.44a20.33,20.33,0,0,0-5.18-11.95c-4-4.54-6.38-10-8.15-15.65s-3.36-11.37-5-17.06c-.21-.72-.22-1.68-.7-2.11a13.85,13.85,0,0,0-2.85-1.53,9.4,9.4,0,0,0-1,2.28c-1.5,10.2-2.16,20.61-6.27,30.22-1.87,4.39-4.34,8.42-5.16,13.33-1.28,7.61-1,15.18-.48,22.78.87,13.14,1.72,26.27,2.84,39.39a232.14,232.14,0,0,0,3,24.31c1.11,5.67,4.06,11,5.42,16.6,3.37,14,6.34,28,7.61,42.41.73,8.22,2.2,16.37,3.11,24.58.62,5.51.89,11.05,1.23,16.59.12,2.07,0,4.15,0,6.22-.18,14,0,28.1-.64,42.13-.78,18.3-2,36.6-6.7,54.44-1.53,5.75-3.38,11.37-6.93,16.28a4.94,4.94,0,0,0-.88,2.6c-.34,10.25.94,20.34,2.57,30.44,1.49,9.25.79,18.56-.5,27.83a21.11,21.11,0,0,0,.38,7.47,181.45,181.45,0,0,1,4.84,41.38c0,10.8,0,21.65-.78,32.41a307.49,307.49,0,0,1-4.19,31.84c-2.33,12.73-5.66,25.28-8.14,38a97.15,97.15,0,0,0-.81,31.47c1.11,8.4,1.67,16.73-.29,25.19-1.43,6.23-.68,12.21,4.83,16.94a123.69,123.69,0,0,1,11.59,12c3,3.39,3.4,7.88,3.9,12.14.37,3.1-2.26,3.41-4.54,3.55-.92,4.36-1,4.38-5.94,5.42a10.81,10.81,0,0,0-3.88,1.83c-2,1.39-3.81,2.28-6.22,1.12a2.49,2.49,0,0,0-2.12.46c-3.09,2.62-6.2,3.74-10,1.14-.62-.43-2.11.27-3.13.63-2.32.84-4.56,2-6.92,2.6a3.58,3.58,0,0,1-2.76-1.1c-1.94-1.91-3.71-4-5.48-6-3.2-3.72-3.79-8.2-3.07-12.79,1.08-7,.07-13.62-1.69-20.35-.79-3-.6-6.27-.78-9.42-.25-4.69-.54-9.38-.61-14.08a31.89,31.89,0,0,1,.58-8.59,95.71,95.71,0,0,0,3.06-32.66c-.42-5.44-.32-10.92-.68-16.37-.88-13.13-1.51-26.32-6.1-38.88-1.09-3-2.53-5.92-3.25-9a125.28,125.28,0,0,1-3-16.26c-1.19-12.49-.48-25,1-37.43,1.34-11.18,3-22.31,4.44-33.47a16.11,16.11,0,0,0-1.64-10.15c-2.94-5.28-3.89-11.13-4.46-17.06-.78-8.08-.35-16.09.25-24.2.43-5.82-1.28-11.9-2.59-17.74-3.41-15.22-7.18-30.36-10.69-45.56-2.81-12.17-5.8-24.32-8-36.61-1.15-6.33-1-12.93-1-19.42-.08-8.34.23-16.68.38-25.38-3.36,2.85-7.31,2.82-10.89.2.1,10,.11,19.6.32,29.17a116.4,116.4,0,0,1-3.58,29.33c-3.92,16.65-8,33.26-11.85,49.92-2.45,10.52-4.7,21.08-6.93,31.64a13.44,13.44,0,0,0-.19,5c2.08,11.4,1.14,22.67-1.28,33.88a10.24,10.24,0,0,1-1.15,3.46c-4.26,6.47-3.32,13.34-2.24,20.46,1.63,10.76,2.86,21.59,3.94,32.42a173.94,173.94,0,0,1,1,20.27,198.43,198.43,0,0,1-1.74,22.18c-.42,3.28-2.11,6.41-3.33,9.56a107.64,107.64,0,0,0-6.74,32.75c-.67,11.44-1.93,22.88-2,34.32,0,8.48.69,17,3.29,25.34,1,3.25.51,7,.53,10.55,0,4.11,0,8.23-.22,12.34a51.23,51.23,0,0,1-1.12,10c-1.56,6.06-2.9,12-1.7,18.35,1.34,7-1.2,12.8-6.06,17.91-4.11,4.32-7.7,4.66-12.35.77a3.78,3.78,0,0,0-3.35-.27c-3.56,1.76-5.88,1.55-9-.95-.71-.56-1.94-.5-2.93-.69a38.74,38.74,0,0,1-5.32-1c-2-.64-3.71-2.1-5.69-2.45-2.93-.53-4.84-1.48-4.37-4.76-5.25-1.5-5.36-2.19-4.32-7.65s3.85-9.68,7.74-13.4c3.06-2.94,6.19-5.84,9-9a12.58,12.58,0,0,0,3.1-6c.45-3.38,0-6.9-.13-10.36-.29-5.7-1.61-11.52-.85-17.07a126.65,126.65,0,0,0-2.46-48.65c-3.65-14.64-6.19-29.61-8.38-44.56a248.51,248.51,0,0,1-2.22-53.54c.88-12.33,3.46-24.54,5-36.83a35.8,35.8,0,0,0-.29-10.07c-1.91-11.91,0-23.59,1.61-35.33.62-4.51.27-9.15.36-13.74,0-.09-.06-.2,0-.27,1.76-4.95-1.52-8.51-3.4-12.45-4.3-9-6.27-18.7-7.38-28.52-1.33-11.75-2.89-23.53-3.21-35.33-.54-19.66-.59-39.36,0-59,.3-10.36,2.77-20.65,3.56-31,1-13.75,4.1-27.1,7.07-40.47,1.39-6.3,4.29-12.25,5.85-18.52,1.33-5.35,1.7-10.93,2.55-16.4a15.12,15.12,0,0,1,.8-2.47c1.26,6.71.55,13.74,3.06,21,1.06-1.36,1.61-2.21,2.3-2.93,3-3.17,5.9-6.59,9.27-9.37,2.87-2.37,6.43-3.89,9.56-6,3.58-2.37,4.21-3.91,1.9-7.48-4-6.14-8.35-12-12.78-17.87a3.89,3.89,0,0,0-6-.26,25.65,25.65,0,0,0-4.68,6.83c-1,2-1.23,4.28-1.8,6.44,0-2.86-.07-5.73.14-8.58.43-5.81,1.21-11.59,1.52-17.4.39-7.43.5-14.87.63-22.31A43.94,43.94,0,0,0,1151.6,366c-2.6-4.58-3.32-10.32-4.4-15.63-1-4.87-1.29-9.87-1.94-14.81a24.41,24.41,0,0,0-.64-2.65c-3.27-.34-3.68,1.8-4.41,4.07-2.71,8.4-5.48,16.77-8.54,25.05a20.54,20.54,0,0,1-4.36,6.87c-4.43,4.66-5.39,10.4-5.8,16.37-1.14,16.38-4.41,32.23-11.84,47-7.21,14.31-14.73,28.46-21.89,42.78-4.21,8.41-8.3,16.89-11.87,25.58-3,7.4-3.41,15.26-2.86,23.31.34,4.86-.59,9.93-1.66,14.76-1.9,8.61-4.68,17-6.44,25.66-1.43,7-1.87,14.31-2.82,21.46a103.25,103.25,0,0,1-1.8,10.81c-.29,1.21-1.78,2.12-2.72,3.17-.9-1.11-2.28-2.1-2.61-3.37a48.39,48.39,0,0,1-1.24-8.33c-.38-4.4-.46-8.83-.9-13.23-.11-1.11-1.11-2.13-1.71-3.19-.67,1-1.71,1.92-2,3-1.63,7.24-3,14.55-4.64,21.79a67.87,67.87,0,0,1-3.49,11.28c-.54,1.27-2.67,1.86-4.08,2.75-.67-1.31-1.84-2.59-1.94-4-.61-9.12,1.59-17.95,3-26.85.3-1.82.54-3.65.8-5.48l-.83-.3c-1,2.21-2.09,4.38-3,6.63-3.35,8.17-6.11,16.63-11.42,23.86a14.94,14.94,0,0,1-3.49,3.64,4.33,4.33,0,0,1-3.6.52c-.93-.44-2-2.19-1.81-3.09.9-4,2.15-7.91,3.44-11.8,2.52-7.58,5.16-15.12,7.72-22.69a10.23,10.23,0,0,0,0-2.4,67.26,67.26,0,0,0-4.39,5.13c-4.23,6.2-8.32,12.51-12.55,18.72-.77,1.12-1.84,2.5-3,2.76a4.66,4.66,0,0,1-4-1.13,5.09,5.09,0,0,1-.43-4.36c1.92-4.28,4.25-8.37,6.44-12.53,3.24-6.16,6.81-12.18,9.59-18.54,1.1-2.52.57-5.81.55-8.75,0-1.56-1.21-1.89-2.39-1.11a13.59,13.59,0,0,0-3.8,3.19c-3.39,5-8.25,6.92-14,7.26-1.8.11-3.89.06-4.22-2.3s-.6-4.88,2.62-5.67m396.75-42.95c0-.15,0-.31-.05-.46l-.29.15.39.27.38.16Zm-327.62-.05c.57-.41,1.32-.71,1.67-1.26,2.49-3.88,5.19-7.66,7.28-11.75,7.9-15.42,15.81-30.85,23.28-46.49,5.27-11,9.86-22.38,14.67-33.63,1.06-2.48.56-3.06-2.08-3-5.24.06-9.09,2.39-11,7.36-2.9,7.75-5.63,15.58-8.41,23.38-5.4,15.16-10.61,30.4-16.28,45.47-2.57,6.84-6.06,13.34-9.13,20a.72.72,0,0,0-.24.1s0,.11,0,.18Zm162,4c.45-12.83-2.28-24.57-11.4-34.17a3.35,3.35,0,0,1-.52-.67c-1.89-3.61-5.06-4.23-8.68-3.61a34.64,34.64,0,0,0-4.9,1.29A135.24,135.24,0,0,0,1163.08,496c-9.93,7.53-15.78,16.89-13.74,29.88,2.92,18.6,12.14,33.65,26.27,45.8a16.66,16.66,0,0,0,5.74,2.87c3.75,1.2,7.66,1.87,11.4,3.11,5.31,1.75,10.63,3.45,16.3,2.58,7.52-1.16,12-4.39,11.89-12.89a76,76,0,0,1,2-18.72C1225.82,536.62,1227,524.48,1227.5,512.27Zm11.33,51.7-.79.14c0,.94,0,1.88,0,2.82-.4,7.26,1.94,11.78,12,13.31,5.07.77,9.91-.51,14.68-2.13,3.47-1.17,6.93-2.7,10.51-3.16a17.48,17.48,0,0,0,10-4.77c11.47-10.74,19.61-23.5,23.39-38.92,3.49-14.21-.19-25.7-12-34.68a138.32,138.32,0,0,0-40.38-21.7c-7.41-2.45-9.34-1.85-14.21,4.25-.17.22-.37.43-.54.65-4.53,5.77-8.13,11.83-9.15,19.39-2.15,15.78-.11,31.17,3.09,46.55C1236.68,551.78,1237.7,557.89,1238.83,564Zm29.06-266.85c-.88,1.56-1.39,2.34-1.78,3.17-2.23,4.78-4.36,9.61-6.67,14.36-4.06,8.37-6.65,17.5-12.7,24.84a11,11,0,0,0-2,10.88c1.35,4.41,2.55,8.89,4.22,13.18,7.41,19.16,15,38.25,22.46,57.39,1.9,4.89,3.6,9.86,5.65,15.51,1.87-1.87,3.46-3.27,4.83-4.85,7-8.15,12.68-16.75,13.8-28.09,1-10.27,3.56-20.39,5.41-30.58,1.7-9.35,3.55-18.68,5-28.07.89-5.81,1.58-11.5,5-16.57,3.82-5.62,5.66-12.07,6.57-18.78a14,14,0,0,0,0-2.33c-5.34,1.53-10.31,3.18-15.38,4.35a31.12,31.12,0,0,1-21.49-2.19,16.1,16.1,0,0,1-6.76-5.74C1272.51,301.28,1270.18,299.48,1267.89,297.12Zm-86.05,139.32c.64-1.58,1-2.5,1.38-3.44q8.58-22.61,17.14-45.21c4.58-12.16,9.09-24.35,13.64-36.52,1.63-4.35.85-8.24-1.9-12a54.09,54.09,0,0,1-5.19-8.38c-3.15-6.54-6-13.22-9-19.82-2.06-4.5-4.19-9-6.66-14.25-2.47,2.58-4.38,4.71-6.44,6.7s-3.84,4.23-6.22,5.44c-11.68,5.9-23.2,3.64-34.55-1.33-.79-.34-1.55-.77-2.76-1.38a39,39,0,0,0,.23,4.5,46.3,46.3,0,0,0,6.55,17.94,26.74,26.74,0,0,1,4.32,12.1c.6,5.9,1.22,11.83,2.3,17.65q4.36,23.63,9.17,47.16c.91,4.46,1.86,9.11,3.9,13.1,2.3,4.47,5.78,8.35,8.91,12.37A66.77,66.77,0,0,0,1181.84,436.44Zm55.05-84.53c.74-.84,1-1,1.08-1.25.33-.88.63-1.77.89-2.68a82.53,82.53,0,0,1,9.57-21.34c2.53-4.08,4.84-8.3,7.22-12.48,9-15.72,13.53-33.08,18.66-50.23,3.65-12.19,7-24.48,13.06-35.79.86-1.62,1.87-3.15,2.79-4.7-13.26-5.2-26.59-4.63-39.76-1.58-8.94,2.06-15.36,7.47-16.24,17.52-.52,5.82-1.4,11.62-1.59,17.44-.92,28.88,1.21,57.66,3.41,86.42C1236.18,345.93,1236.54,348.62,1236.89,351.91ZM1169,223.24c2.07,4.17,4.37,7.81,5.76,11.76,4.17,11.91,8.27,23.85,11.86,35.95,5,16.85,10.47,33.46,19.66,48.59,5.87,9.68,11.68,19.38,14.45,30.53.13.5.65.91,1.22,1.66a13.45,13.45,0,0,0,.36-1.52c2.57-29.3,4.69-58.64,4-88.08a252,252,0,0,0-2.41-26.12,13.26,13.26,0,0,0-3.39-7.24,25.34,25.34,0,0,0-15.1-7.68c-4-.48-8-1-12.06-1.37C1185,219,1176.94,220.61,1169,223.24Zm-19.11,519.65.51.28c1.48-2.34,3.16-4.57,4.41-7,10-19.62,16.67-40.51,20.87-62,2.46-12.58,2.55-25.65,3.41-38.52.85-12.69,1.38-25.41,1.9-38.12a21.27,21.27,0,0,0-.94-6.61c-2.11-7.3-6.27-13.49-11.12-19.2-1.36-1.61-3.39-2.67-5.11-4-1.09,2-2.92,3.84-3.15,5.89-1,8.88-1.93,17.81-2.11,26.74-.35,16.69-.23,33.4-.17,50.1.08,22.86-1.31,45.57-5.44,68.11C1151.47,726.58,1150.88,734.77,1149.89,742.89Zm158.32-.14.72-.36c-.48-4-.89-8-1.44-12-1.6-11.47-3.88-22.88-4.75-34.4-1.29-17.08-1.84-34.23-2.26-51.37-.48-19.78-.33-39.58-.79-59.37a71.13,71.13,0,0,0-2.43-15c-.76-3.14-3.29-3.59-5.17-1a170.3,170.3,0,0,0-11.38,17.1,22.07,22.07,0,0,0-2.77,10.75c.24,11.38,1.42,22.74,1.77,34.13.65,20.93,1.5,41.76,8.11,61.95,4.8,14.7,9.08,29.55,16.45,43.25C1305.45,738.6,1306.89,740.64,1308.21,742.75Zm-69.56-266.6c1-.57,1.95-1.09,2.87-1.68,9.18-5.93,18.33-11.91,27.53-17.79,7.58-4.85,7.91-4.9,5.37-13.57-8.06-27.56-19.29-53.87-32.14-79.51a8.31,8.31,0,0,0-1.21-1.45C1234.89,371.26,1232,460.06,1238.65,476.15Zm-21-114.46c-2.1,4.11-4.19,7.66-5.79,11.43-7.07,16.64-14.27,33.24-20.85,50.07-3.18,8.12-5.15,16.71-7.57,25.11-.73,2.53.11,4.4,2.51,5.92,10.52,6.64,20.92,13.45,31.37,20.19,1,.62,2,1.18,3,1.79C1226.41,459.7,1224.52,372.71,1217.68,361.69Zm-47.54,364.9-.62-.28c-3.8,5-7.75,9.88-11.37,15-7.63,10.77-10.56,23.23-12.29,36a207.44,207.44,0,0,0,.74,58.62,130.15,130.15,0,0,0,4.82,20c1.74,5.44,8.57,6.49,12.36,2.15a12.77,12.77,0,0,0,3.07-5.9,75.68,75.68,0,0,0,.59-11.48c.18-19.14.2-38.28.48-57.42.16-10.83.67-21.66,1.09-32.49C1169.33,742.74,1169.76,734.67,1170.14,726.59Zm118.79,0c0,.86,0,1.68,0,2.5.53,10.54,1.25,21.07,1.57,31.61.53,17.24,1,34.48,1.15,51.73.12,11.49-.48,23-.26,34.49.06,3.4,1.42,7,2.91,10.11s4.57,3.93,8,3.45c3.16-.45,4.83-2.48,5.58-5.29,1.39-5.18,2.88-10.36,3.8-15.63a219.88,219.88,0,0,0,1.81-59.15C1311.5,759.69,1304,741.56,1288.93,726.59Zm-113.92.57a17.6,17.6,0,0,0-.21,2c0,12.8-.39,25.62.1,38.41.81,21.21.57,42.38-.55,63.57-.38,7.23-.41,14.49-.35,21.73,0,2.91.39,6.29,3.63,7.4s5.65-1.59,7.62-3.8c8.68-9.75,14.23-21,13.84-34.27-.33-11.38-1.26-22.76-2.49-34.07-1.11-10.31-3.19-20.49-7.51-30C1184.44,747.83,1179.75,737.57,1175,727.16Zm108.83.1c-4.09,9-8.41,18.17-12.43,27.48a103.9,103.9,0,0,0-5.59,15.37c-4.13,16.14-5.67,32.65-6.23,49.26a48.83,48.83,0,0,0,7.58,28.26,64.19,64.19,0,0,0,9.73,11.6c2.85,2.74,6,1.57,7.15-2.21a19.86,19.86,0,0,0,1-6.36c-.39-13.48-1.09-26.94-1.39-40.42-.25-11.21-.54-22.46,0-33.66C1284.5,760,1285.15,743.44,1283.84,727.26Zm-94.68-137.18c-1.33,4.31-3.1,8-3.53,11.81-1.6,14.05-3.08,28.12-4,42.22-1.12,17.39-2,34.82-2.25,52.24-.16,11.56.85,23.15,1.59,34.7.17,2.73,1.34,5.38,2.06,8.07l1-.15a30.72,30.72,0,0,0,.91-3.48q3.13-22.11,6.22-44.21c2-14.56,3.63-29.28,8.46-43.22,3.34-9.65,3.61-19.09,1.75-28.91C1199.42,608.84,1196.2,599.11,1189.16,590.08Zm80.07.54-1.52,2.15c-5.92,8.57-8.77,18.25-10.52,28.38-1.56,9-1.45,17.76,2,26.41a54.31,54.31,0,0,1,3.18,11.7c3.35,21.78,6.47,43.61,9.74,65.4.73,4.84,1.73,9.63,2.6,14.44h1.19c.64-2.21,1.64-4.39,1.85-6.64.76-8.06,1.66-16.14,1.78-24.22.48-33.51-2-66.88-5.27-100.2C1273.64,602.05,1272.64,596.17,1269.23,590.62ZM1102.41,295c.84-.15,1.21-.16,1.54-.27,9.33-3.05,16.73-8.92,23.26-16a13.42,13.42,0,0,0,3.43-9c.4-10.94,4.18-20.21,13.82-26.39,2.9-1.86,5.66-3.94,8.89-6.21-5.22-3.85-10-7-16.3-7.41-7.93-.53-14.17,3-20.16,7.5-9,6.77-14.76,15.24-14.66,26.94q.11,11.88.17,23.76C1102.42,290.12,1102.41,292.37,1102.41,295Zm203.36-57.79c2.2,1.57,4.08,3.14,6.17,4.35,10.41,6,15.86,15.11,16.22,27,.16,5.57,2.55,9.7,6.51,13.21,2.11,1.88,4.25,3.72,6.44,5.51a43.15,43.15,0,0,0,15.05,7.7,13.46,13.46,0,0,0,.22-1.6c.07-10.65.33-21.31.07-31.95a28.57,28.57,0,0,0-2.49-10c-3.75-8.87-11-14.41-19.15-18.89C1325.18,227.2,1314.57,229.24,1305.77,237.18Zm-118,54.27c-.11-.52-.31-1.54-.57-2.53-3.39-13-6.74-26.06-10.2-39.07a55.54,55.54,0,0,0-3-8.5c-1.22-2.75-3-3.53-5.77-2.28-9.49,4.35-18.88,8.92-28.32,13.39-2,.93-2.19,2.25-1.27,4.14,1.66,3.38,3.12,6.86,4.75,10.25,3.26,6.75,7.55,12.71,14.22,16.39,6.92,3.81,14,7.3,21.12,10.74a15.7,15.7,0,0,0,5.73,1.29C1186.55,295.4,1187.82,294.21,1187.74,291.45Zm87.26,3.88a13.77,13.77,0,0,0,2.35-.45,107.32,107.32,0,0,0,26.81-13.67c9-6.26,12.4-16.32,16.44-25.84a3.06,3.06,0,0,0-1.28-2.66q-14.46-7-29.07-13.76c-2.2-1-4.16-.12-5.17,2.07a44.6,44.6,0,0,0-2.78,7.37c-2.35,9.11-4.47,18.28-6.8,27.39-1.28,5-2.9,9.94-4.2,14.94C1270.55,293.63,1271.86,295.27,1275,295.33Zm108.37,102.55-1-.19c-2.09,6.61-4.41,13.15-6.18,19.84a85,85,0,0,0-2,12.83c-.83,8.07-1.85,16.28.34,24.19,5.56,20.12,14.74,38.68,25.33,56.58a16.07,16.07,0,0,0,2.31,2.33C1392.58,474.85,1388.66,436.25,1383.37,397.88Zm-307.78-.17c-5.29,38.73-9.4,77.21-18.23,115a11.76,11.76,0,0,0,2.81-3.37c5.82-11.61,11.93-23.1,17.18-35a98.8,98.8,0,0,0,7.41-23c1.19-6.92.42-14.27-.1-21.38C1083.86,418.86,1081.53,408,1075.59,397.71Zm231.78,286.88.9.16c.57-1.54,1.2-3,1.68-4.62,5.34-17.25,6.49-35.15,8-53,.87-10.51,1.68-21,2-31.59.38-13.46.23-26.94.26-40.41a8.57,8.57,0,0,0-.62-2.23l-.77-.16a17.63,17.63,0,0,0-2.13,3.39c-2.5,7.1-5.46,14.11-7.17,21.41-4.82,20.51-4.45,41.27-2.14,62.12,1.32,12,2.39,24,.57,36.09C1307.46,678.66,1307.53,681.64,1307.37,684.59Zm-157,.29,1.16-.27q-.15-3.06-.31-6.11c-.34-6.11-1.22-12.24-.92-18.31.63-13.17,2.16-26.29,2.79-39.46,1.05-21.8-1.73-43.07-10.25-63.36a42.32,42.32,0,0,0-2.66-4.66l-.9.2a26.31,26.31,0,0,0-.69,3.69c-.15,3.3-.19,6.6-.22,9.9-.22,24.34,1.4,48.6,3.67,72.8,1,10.59,2.71,21.11,4.48,31.6C1147.34,675.64,1149.08,680.22,1150.39,684.88Zm-43.61-286.09c2.19-2.41,3.69-4.16,5.29-5.81,3.94-4.06,6.51-8.74,6.82-14.5a20.52,20.52,0,0,1,5.56-13.55c3.32-3.52,5.1-7.82,6.25-12.49.92-3.74,2.31-7.35,3.38-11.05a104.88,104.88,0,0,0,3-11.71,25.67,25.67,0,0,0-1.5-12.92,19.41,19.41,0,0,0-3.21,1.85c-5.34,4.76-10.67,9.54-15.9,14.44-3.63,3.4-4.91,7.79-5.31,12.7-.55,6.65-1.3,13.31-2.47,19.87-1.66,9.28-3.9,18.46-3,28C1105.87,395.05,1106.3,396.45,1106.78,398.79Zm245-.52a11.32,11.32,0,0,0,.82-1.5,7.54,7.54,0,0,0,.44-2.21c-.27-6.27-.15-12.61-1-18.8-1.44-10.05-4.28-19.88-4.3-30.15a17.66,17.66,0,0,0-6.37-13.67c-4.79-4.24-9.47-8.63-14.26-12.87a23.65,23.65,0,0,0-3.52-2.19,6.56,6.56,0,0,0-.66.94,15.06,15.06,0,0,0-.44,1.63,36.87,36.87,0,0,0,2,21.34,101,101,0,0,1,3.64,11.25c1.17,4.54,2.66,8.87,5.91,12.35a21.56,21.56,0,0,1,6,14.25C1340.4,387.1,1346.15,392.39,1351.77,398.27ZM1275,214.83c.09-.3.17-.61.26-.92a16,16,0,0,0-2.46-2.09c-3.7-2.07-7.63-3.76-11.14-6.11a18.32,18.32,0,0,1-6-6.06c-5.5-10.19-7.14-21.34-7.21-32.79,0-4.47-1.07-5.71-5.48-6.1a16.7,16.7,0,0,0-3.39,0c-4.63.51-5.62,1.71-5.52,6.38.19,9.62.35,19.23.54,28.85.1,5.08.2,10.17.39,15.26.1,2.85,1.72,4.21,4.57,4.21,9.79,0,19.59.07,29.37,0A53.84,53.84,0,0,0,1275,214.83Zm-92.15-.39a18.07,18.07,0,0,0,2.95.64c11.28.15,22.56.33,33.85.35,3,0,4.24-1.5,4.31-4.78.28-15,.47-30,.75-45,0-2.61-1-4.12-3.6-4.53a23.71,23.71,0,0,0-3.91-.47c-5.64,0-6.88,1.47-6.87,7.07,0,11.16-1.74,22-7.17,31.91a18.75,18.75,0,0,1-6,6c-3.34,2.25-7.11,3.85-10.64,5.83A32.52,32.52,0,0,0,1182.88,214.44Zm-15.05,750.14h.89a4.63,4.63,0,0,0,.73-1.41c.8-5.77,2.2-11.56,2.17-17.34-.06-11.86-.72-23.73-1.43-35.58s-1.68-23.49-2.76-35.21c-.46-4.93-5.39-7.9-10.25-6.62-4.06,1.06-5.64,4.92-4.18,9.78s3.35,9.88,4.13,15c2.86,18.71,5.29,37.48,8,56.22C1165.84,954.47,1166.91,959.51,1167.83,964.58Zm122.17,0,.82.05a19.9,19.9,0,0,0,.81-2.59c1.25-7.52,2.59-15,3.65-22.58,1.84-13.06,3.2-26.18,5.33-39.18,1.24-7.58,3.56-15,5.47-22.45.7-2.77,1.12-5.29-1.37-7.52-2.69-2.4-5.63-2.45-8.7-1.32s-4.47,3.87-4.7,7.1c-1.15,16.91-2.42,33.81-3.38,50.73-.65,11.36-1.54,22.77,1,34.05C1289.26,962.09,1289.65,963.31,1290,964.55ZM1129.14,282.42c-4.06,3.29-7.67,6.12-11.16,9.09-12.83,10.88-16.71,24.55-12.39,40.65.33,1.23,1.31,3,2.25,3.17s2.39-1.06,3.43-1.91a32.37,32.37,0,0,0,2.16-2.6,111.58,111.58,0,0,1,8-7.86c3.39-2.83,7.19-5.17,10.61-8,1-.81,2-2.55,1.86-3.69C1132.5,301.92,1130.84,292.58,1129.14,282.42Zm200.63.21c-1.56,9.15-2.8,17.73-4.56,26.2-.75,3.63.43,5.74,3.25,7.48.56.34,1.1.73,1.63,1.12,6.09,4.55,12.8,8.4,16.86,15.21a8.57,8.57,0,0,0,2,2c1.71,1.45,3.27,1.19,3.92-1a44.29,44.29,0,0,0,1.6-7.72c.72-6.6,1-13.17-2-19.43C1347.62,296.24,1339.1,289.5,1329.77,282.63Zm-48.42,681.12h.64a9.6,9.6,0,0,0,.24-1.28c.72-13.45,1.49-26.89,2.12-40.34.3-6.3.53-12.62.43-18.93-.14-9.78-.54-19.57-1-29.35a4.32,4.32,0,0,0-1.92-3.1c-4.42-2.36-11.29,1.59-11,6.54.69,12,1.43,24.06,2.81,36,1,9.05,3.26,18,4.67,27C1279.55,948.07,1280.36,955.92,1281.35,963.75Zm-104.5.4.62-.13.69-4.75c1.7-11.93,2.82-24,5.26-35.76,3.1-14.94,4.25-30,4.75-45.16a8.05,8.05,0,0,0-9.88-8.08c-1.75.36-2.93,1.16-3.1,3.09-.29,3.28-1,6.56-.9,9.83q.72,34.9,1.72,69.8C1176.11,956.71,1176.56,960.43,1176.85,964.15Zm130.57-465.61a8.21,8.21,0,0,0,.13-1.59,69.62,69.62,0,0,0-13.73-31.19,11.83,11.83,0,0,0-9.57-4.6,59.76,59.76,0,0,0-24.22,4.58c-1.94.77-3.48,2.51-5.75,4.21,2.38.7,3.81,1.12,5.24,1.56,8.28,2.52,16.61,4.85,23.76,10.1,7,5.13,14.08,10.07,21.14,15.08C1305.29,497.31,1306.24,497.82,1307.42,498.54ZM1204.6,469.91c-2.31-1.73-3.76-3.37-5.57-4.09a60.5,60.5,0,0,0-23.66-4.69,12.93,12.93,0,0,0-10.93,5.41,74.4,74.4,0,0,0-12.78,28.39,21.34,21.34,0,0,0,0,3.84c5.82-4.17,11.1-7.92,16.34-11.71,7.42-5.36,14.79-10.78,23.82-13.25C1195.77,472.73,1199.68,471.42,1204.6,469.91Zm72.31-172.73c1.41,4.06,4.57,4.67,7.3,5.72,19.22,7.42,36.68-1.29,40.17-20.3.78-4.26.34-8.77.12-13.16a3.68,3.68,0,0,0-2.34-2.68c-.84-.13-2.17,1.16-2.82,2.14-1.2,1.79-1.77,4-3.11,5.69-8.62,10.64-19.27,18.15-33,20.85C1281.21,295.85,1279.19,296.55,1276.91,297.18Zm-115.26,8.35c5.39,0,13.76-2.14,17.83-4.79.93-.61,1.46-1.83,2.17-2.77a13.48,13.48,0,0,0-2.38-1.67,19,19,0,0,0-3.28-.83c-15.7-3.58-28.3-11.4-36.07-26-.62-1.19-2.06-1.94-3.11-2.9-.92,1.21-2.47,2.34-2.63,3.63a51.23,51.23,0,0,0-.1,9.83C1135.2,295,1146.59,305.52,1161.65,305.53ZM1301.79,468.3a30.1,30.1,0,0,0,1-3.38c.49-3.35,1-6.7,1.31-10.08.63-7.73.56-15.45-1.5-23-.86-3.16-2.32-6-5.24-7.78-1.79-1.07-4-1.75-5.42.15-4.72,6.31-9.27,12.76-13.72,19.27-1.45,2.13-.62,4.24,1.43,5.66a70.19,70.19,0,0,0,6.24,3.85,37.26,37.26,0,0,1,13.84,12.63C1300.14,466.29,1300.7,466.9,1301.79,468.3Zm90.29,39.1.67-.51c-.73-1.6-1.51-3.18-2.18-4.81-5.21-12.62-10.72-25.13-15.49-37.92-5.35-14.39-10-29.05-15-43.55-2.07-6-6-8.66-11.61-8.53-2,.05-2.82.79-2,2.8,4.51,10.66,8.74,21.47,13.62,32,4.6,9.9,9.86,19.5,14.88,29.21q7.32,14.19,14.78,28.31A22.23,22.23,0,0,0,1392.08,507.4Zm-30.82-180.64-1.52-.23c-2.64,6.69-5.54,13.29-7.78,20.11a14.29,14.29,0,0,0,0,8.27c3.12,10,6.68,19.79,10.17,29.63.29.83,1.29,1.4,2,2.1.69-.71,1.79-1.33,2-2.15.86-3.64,2.17-7.37,2-11-.4-8.71-1.24-17.44-2.49-26.08C1364.6,340.46,1362.74,333.64,1361.26,326.76Zm-262.1-.27-.93.26a2.78,2.78,0,0,0-.42.67c-4.52,16.12-7.63,32.46-6.81,49.31a30.05,30.05,0,0,0,1.77,7.64c.29.9,1.44,1.52,2.2,2.26.64-.74,1.57-1.37,1.87-2.23,3.39-9.59,6.9-19.14,9.87-28.85a16.79,16.79,0,0,0,.07-9.4C1104.67,339.46,1101.75,333,1099.16,326.49ZM1208.57,644.4l1,0c.76-2.3,1.57-4.58,2.26-6.89,4.25-14.39,7.93-28.91,9.13-43.91.69-8.67-1-8.62-7.28-8.49-.28,0-.56-.08-.84-.06l-16.73,1.76C1208.65,604.6,1213.53,623.42,1208.57,644.4Zm53.83-57c-4.19-1.88-18-2.79-21.51-2.09a3.19,3.19,0,0,0-2.78,3.4,65.15,65.15,0,0,0,.17,7.91c1.75,15.4,5.51,30.37,10.21,45.11.27.87.69,1.7,1,2.55l.79-.12C1245.46,623.28,1250.35,604.54,1262.4,587.39Zm-216.54-76.1.58.47a44.41,44.41,0,0,0,3.34-3.67c6.9-9.44,10.24-20.37,12.2-31.63,2.5-14.36,4.37-28.84,6.23-43.3.93-7.28,1.26-14.63,1.78-22,.13-1.75,0-3.58-2.44-4.57C1060.6,441.72,1057.6,477.42,1045.86,511.29Zm345.39-105c-2.47,1.67-2.54,3.76-2.39,5.81.44,5.92.74,11.86,1.55,17.74,2.31,16.88,4.5,33.79,7.43,50.57a65.78,65.78,0,0,0,10.38,26.41,56.72,56.72,0,0,0,4,4.66l.75-.48C1401.21,477.17,1398.4,441.49,1391.25,406.3ZM1191.39,751.06l.22.06a28.87,28.87,0,0,0,1.41-4.24c1.89-10.83,4-21.65,5.42-32.55,1-7.17.56-14.53,1.66-21.67,1.3-8.44,3.42-16.78,5.46-25.09,3-12.06,3.16-17.39.72-27-2.34,10.46-4.74,21.67-7.37,32.84-3.12,13.24-5.73,26.51-4.91,40.24a78.44,78.44,0,0,1-.41,10.72C1192.92,733.25,1192.13,742.15,1191.39,751.06Zm61.22-110.93c-1,7.3-2.53,14.12-.66,21.09.93,3.45,1.63,7,2.47,10.45,2.32,9.61,4.49,19.19,5.23,29.14,1,13.22,2.87,26.38,4.6,39.53.46,3.5,1.8,6.88,2.74,10.32a7.36,7.36,0,0,0,.34-3.52q-1.26-20.29-2.51-40.6c-.31-5-.13-10-1.11-14.87C1260.27,674.62,1256.42,657.66,1252.61,640.13Zm120-254-.65-.28c-3.89,4.65-7.86,9.23-11.6,14a5.78,5.78,0,0,0-1,4,110.84,110.84,0,0,0,2.9,14.86c.76,2.6,2.92,4.8,4.58,7.38,4.06-3.93,4.65-8.33,4.79-12.78.18-5.74-.06-11.49.09-17.23C1371.76,392.78,1372.25,389.46,1372.56,386.14Zm-281,40.12c5.4-5.52,7.21-11.58,8-18.16a14.33,14.33,0,0,0-4.92-13.38c-2.35-2.13-4.19-4.83-6.29-7.25-.44-.5-1-.93-1.91-1.82.1,1.85.15,3.05.22,4.26q.4,7.88.82,15.77c.24,4.58.19,9.21.84,13.73C1088.62,421.64,1090.24,423.67,1091.51,426.26Z" transform="translate(-453.46 -68.75)"/><g id="Misc"><path class="cls-2" d="M1271,122.75c-.2.6-.41,1.2-.59,1.81-.77,2.71-1.87,4.85-4.95,5.92-6.69,2.33-10.3,7.91-13.4,13.86-4.44,8.55-4.44,8.55-14.11,8.55-7.35,0-14.71-.18-22.05.07-3.39.12-5.22-1.36-6.65-4.1-1.76-3.33-3.52-6.68-5.56-9.83a22.26,22.26,0,0,0-10.91-9c-1.58-.61-2.74-2.59-3.78-4.15a14.06,14.06,0,0,1-1.2-3.68c-.54-5.88-1.64-11.78-1.49-17.64.24-9,2.29-17.78,8.55-24.81a19.25,19.25,0,0,1,6.41-4.92c18.87-8.14,37.88-8.06,56.72.05,5.72,2.46,9,7.54,11.27,13.23a53.6,53.6,0,0,1,2,32.43C1271.1,121.26,1271.06,122,1271,122.75Z" transform="translate(-453.46 -68.75)"/><path class="cls-3" d="M731.08,122.75q-1.4,7.59-2.8,15.16c-.21,1.15-.41,2.31-.61,3.47l-1,.24a10.83,10.83,0,0,1-1.15-2.89c-.32-3.66-.55-7.32-.62-11-.13-5.79-1-11.16-4.09-16.43-2.1-3.62-2.3-8.39-3.16-12.68-.91-4.54-2.86-6.18-7.5-6.39-6.1-.28-12.18-.91-18.28-1.13-3-.11-5.94.39-8.92.55-4.32.23-8.64.51-13,.59-5.52.1-8,2.24-8.37,7.71-.32,5.26-1.48,10.05-4.65,14.53-1.55,2.19-1.83,5.48-2.12,8.33-.46,4.58-.37,9.22-.68,13.82a31.14,31.14,0,0,1-1.11,4.85l-1-.11q-1.81-9.34-3.65-18.71c-1.34-6.93-2.55-13.84-1.58-21,1.16-8.52,3.17-16.65,9.41-23a16.21,16.21,0,0,1,5-3.66c7.73-3.27,15.67-5.77,24.19-6a82.9,82.9,0,0,1,26.43,3.35C722.57,75.56,728.3,82.91,731,93.19a55.6,55.6,0,0,1,.41,27.07C731.26,121.08,731.2,121.92,731.08,122.75Z" transform="translate(-453.46 -68.75)"/><path class="cls-1" d="M877.46,604c-1.29-6.83-2.56-13.66-3.87-20.49-.76-4-1.45-8-2.43-11.9-.59-2.37.08-3.37,2.45-3.49,1.2-.06,2.39-.32,4-.55.74,4.23,1.51,8.26,2.14,12.32,1.12,7.25,2.17,14.52,3.23,21.79a10,10,0,0,1,.16,3.08A18.2,18.2,0,0,1,882,608c-1.18-.59-2.39-1.13-3.53-1.8-.36-.21-.54-.72-.81-1.09Z" transform="translate(-453.46 -68.75)"/><path class="cls-1" d="M923,551.29a10.49,10.49,0,0,0,0,1.12c.24,5-.2,5.48-5.23,4.42-5.51-1.18-8.82-5.5-12.18-9.5a19.92,19.92,0,0,1-3.33-6.17c-1.54-4.4-2.74-8.93-4.21-13.82a7.06,7.06,0,0,1,1.74,1c3.65,4.51,7.44,8.92,10.8,13.65a14.56,14.56,0,0,0,7.88,5.89Z" transform="translate(-453.46 -68.75)"/><path class="cls-1" d="M1447,550.16c-5.68-6.58-6.52-15.15-9.15-23.19a22.7,22.7,0,0,1,2.75,2.51c3.35,4.28,6.72,8.55,9.86,13,2.42,3.41,5.89,5.06,9.54,6.55l2.3,1.71c0,2,0,4,0,6a53.81,53.81,0,0,1-7.1-.55c-1.27-.26-2.4-1.36-3.51-2.19-1.62-1.22-3.17-2.54-4.74-3.81Z" transform="translate(-453.46 -68.75)"/><path class="cls-1" d="M456.47,551.25l4.68-3.45" transform="translate(-453.46 -68.75)"/><path class="cls-1" d="M996.38,551.27l4.62-3.39" transform="translate(-453.46 -68.75)"/><path class="cls-1" d="M1447,550.16c1.57,1.27,3.12,2.59,4.74,3.81,1.11.83,2.24,1.93,3.51,2.19a53.81,53.81,0,0,0,7.1.55c0-2,0-4,0-6a4.94,4.94,0,0,1,3.65,5.44c-.48,2.77-2.47,3.14-4.82,3.11C1455.62,559.21,1447.48,554.92,1447,550.16Z" transform="translate(-453.46 -68.75)"/><path class="cls-1" d="M1154.49,441.48c-.11,1.61-.21,3.21-.32,4.82C1154.28,444.69,1154.39,443.09,1154.49,441.48Z" transform="translate(-453.46 -68.75)"/><path class="cls-1" d="M1415.81,598.31c.09.42.18.83.26,1.25C1416,599.14,1415.9,598.73,1415.81,598.31Z" transform="translate(-453.46 -68.75)"/></g><g id="Chest" data-part="Chest"><path id="Chest2" class="cls-4" d="M725.93,234.85c2.45,0,4.91-.12,7.35,0,13.82.77,25,6.69,33.14,17.82,3.69,5,4.19,11.28,4.7,17.26.92,10.82-.06,21.48-4.34,31.62-3.83,9.05-10,15.54-19.62,18.57-13,4.08-25.71,4.78-38.11-1.79-8.35-4.43-13.24-11.16-13.69-20.89-.41-8.66-1.41-17.29-1.55-25.94A54.7,54.7,0,0,1,699,246.25c3.27-6.7,8.07-11,16-11.06,3.67,0,7.33-.39,11-.61Z" transform="translate(-453.46 -68.75)"/><path id="Chest1" class="cls-4" d="M653.36,234.56c4,.25,8.07.59,12.12.73,6.39.22,10.73,3.5,13.79,8.87,3.63,6.34,5.31,13.26,6,20.45,1.21,12.38-.24,24.67-1.81,36.9-1,7.69-5.94,12.86-12.52,16.48-12.69,7-25.79,6.33-39.12,2-10.28-3.33-16.47-10.57-20-20.39-4.23-11.82-4.58-23.92-2.67-36.24,1.47-9.5,6.83-16,14.6-21.11C632.83,236.27,642.69,234.08,653.36,234.56Z" transform="translate(-453.46 -68.75)"/></g><g id="Biceps" data-part="Biceps"><path id="Bicep" class="cls-5" d="M826.68,358.13c0,1.42,0,2.83,0,4.25,0,3.2-1.69,4.68-4.89,4.13-5.53-.95-10.41-3.48-13.27-8.3C801.29,346,796,333,795.69,318.58c-.1-4.26,1.2-8.74,2.69-12.82,1.87-5.14,6.5-6,10.3-2.08,8.39,8.76,14.29,19,16.19,31.11,1.21,7.69,1.5,15.53,2.2,23.31Z" transform="translate(-453.46 -68.75)"/><path id="Bicep-2" data-name="Bicep" class="cls-6" d="M552.41,355.93c.77-7.58,1-15.26,2.43-22.72,2.12-11.28,7.71-21,15.66-29.25,4.08-4.25,8.5-3.26,10.91,2.17,3.25,7.32,3.09,14.87,1.31,22.45a100.89,100.89,0,0,1-11.27,28.85c-3,5.07-7.76,7.86-13.43,9-3.64.74-5.14-.62-5.16-4.25,0-2.08,0-4.15,0-6.23Z" transform="translate(-453.46 -68.75)"/><path id="Bicep-3" data-name="Bicep" class="cls-7" d="M780.3,285.13a28.84,28.84,0,0,1,1.53,4.3c4.72,26.92,15.49,51.74,26.41,76.5,1.11,2.5,2.26,5,3.37,7.48a12.87,12.87,0,0,1,.91,2.37c.5,2.24-1,5.72-3,6.57-2.48,1.08-4.1-.47-5.57-2.16-6.25-7.18-10.71-15.47-14.83-24a209.33,209.33,0,0,1-14-39.65c-2.61-10.23.5-20,3.65-29.59C778.93,286.43,779.52,286,780.3,285.13Z" transform="translate(-453.46 -68.75)"/><path id="Bicep-4" data-name="Bicep" class="cls-8" d="M600.26,285.57q1.46,4.79,2.89,9.56c3.13,10.51,2,20.66-1.41,31-4.86,14.94-10.31,29.54-18.4,43a100,100,0,0,1-7.56,10.56c-1.47,1.86-3.24,4.07-6.16,2.4-2.54-1.44-3.42-5-2.1-8,2.55-5.88,5.37-11.65,7.7-17.61,6-15.26,12-30.5,17.45-45.94,2.33-6.62,3.22-13.73,4.82-20.61.35-1.49.94-2.92,1.41-4.38Z" transform="translate(-453.46 -68.75)"/></g><g id="Core" data-part="Core"><path id="Core-2" data-name="Core" class="cls-5" d="M759.9,417c.56,4.34,1.38,8.66,1.62,13,.59,10.35.94,20.71,1.27,31.07a5.12,5.12,0,0,1-1.16,3.26c-6.42,7.15-12.81,14.35-19.52,21.21a20.07,20.07,0,0,1-7.46,4.32c-3.65,1.34-4.86-.1-3.94-3.89a92.6,92.6,0,0,0,2.62-12.1c1-9.18,1.87-18.39,2.13-27.61.21-7.7,1.64-13.88,9.46-17.72,4.34-2.13,7.7-6.26,11.49-9.51.84-.71,1.61-1.49,2.42-2.24Z" transform="translate(-453.46 -68.75)"/><path id="Core-3" data-name="Core" class="cls-5" d="M620,416.39c1.14,1,1.74,1.58,2.38,2.09,5.79,4.65,11.5,9.4,17.43,13.86,1.82,1.37,2.92,2.7,3.09,5,.67,8.82,1.44,17.64,2.15,26.46.61,7.5,1,15,3.55,22.24,1.32,3.69-.18,5.24-3.86,3.86a21.05,21.05,0,0,1-7.62-4.53c-6.59-6.73-12.84-13.79-19.13-20.8a5,5,0,0,1-1.34-3.19c.69-13.63,1.5-27.26,2.34-40.88A26.22,26.22,0,0,1,620,416.39Z" transform="translate(-453.46 -68.75)"/><path id="Core-4" data-name="Core" class="cls-9" d="M737.5,428.7c0-6-.11-11.56.07-17.1a6.11,6.11,0,0,1,1.68-4c6.54-5.78,13.25-11.37,20.52-17.55,0,6.72.16,13-.11,19.24a9.4,9.4,0,0,1-2.21,5,51.64,51.64,0,0,1-16.7,13.25A27.16,27.16,0,0,1,737.5,428.7Z" transform="translate(-453.46 -68.75)"/><path id="Core-5" data-name="Core" class="cls-7" d="M619.62,390.19c7.34,6.16,13.92,11.59,20.33,17.21a6,6,0,0,1,1.72,3.92c.19,5.63.08,11.27.08,17.42-1.6-.64-3-.88-3.92-1.61-5.08-3.84-10.16-7.7-15-11.78a9.42,9.42,0,0,1-3.2-7.83C619.71,402,619.62,396.45,619.62,390.19Z" transform="translate(-453.46 -68.75)"/><path id="Core-6" data-name="Core" class="cls-9" d="M619.17,369.52c6.33,4.75,12,9.6,18.29,13.51,3.86,2.41,5.27,5.15,5,9.39s-.39,8.43-.59,13.18a20.12,20.12,0,0,1-2.25-1.37c-4.92-4.24-9.77-8.57-14.74-12.76a16.37,16.37,0,0,1-6.21-15C618.86,374.28,619,372,619.17,369.52Z" transform="translate(-453.46 -68.75)"/><path id="Core-7" data-name="Core" class="cls-9" d="M737.43,405.58c0-6.4,0-12.44.07-18.49,0-.67.77-1.48,1.4-1.95,6.68-5,13.41-10,20.13-15a8.35,8.35,0,0,1,1.34-.65c0,4.79.51,9.34-.2,13.69-.42,2.53-2.43,5.14-4.4,7-5.4,5.1-11.14,9.83-16.77,14.7A7.78,7.78,0,0,1,737.43,405.58Z" transform="translate(-453.46 -68.75)"/><path id="Core-8" data-name="Core" class="cls-10" d="M641.76,333.72c0,3.57,0,6.48,0,9.38.12,5.26.4,10.51.41,15.77,0,1.29-.75,2.59-1.15,3.88-1.2-.38-2.63-.47-3.56-1.19-4-3.1-7.91-6.33-11.77-9.61-1.82-1.55-2-3.25,0-5,4.46-3.88,8.87-7.84,13.34-11.72A19.53,19.53,0,0,1,641.76,333.72Z" transform="translate(-453.46 -68.75)"/><path id="Core-9" data-name="Core" class="cls-10" d="M737.42,381.07c.32-4.36.51-8.73,1.06-13.05.12-1,1.35-2,2.3-2.66,4.37-3.11,8.84-6.09,13.24-9.17,1.37-.95,2.24-.8,2.67.88l.09.27c3.44,11.64,4.93,8.33-4.72,15.61-3.53,2.67-7.36,4.93-11.07,7.33a23.13,23.13,0,0,1-2.44,1.22Z" transform="translate(-453.46 -68.75)"/><path id="Core-10" data-name="Core" class="cls-11" d="M737.74,333.93a15.58,15.58,0,0,1,2.9,1.5c4.46,3.92,8.85,7.91,13.29,11.84,1.64,1.45,1.68,2.94.07,4.29-4.24,3.56-8.45,7.19-12.9,10.48-2.45,1.82-3.77,1-3.79-2.2,0-4.24.33-8.47.41-12.71S737.74,338.72,737.74,333.93Z" transform="translate(-453.46 -68.75)"/><path id="Core-11" data-name="Core" class="cls-9" d="M623.41,355c5.78,3.92,11,7.33,16,10.94a5.07,5.07,0,0,1,1.77,3.28c.4,3.95.49,7.93.74,12.61a26.12,26.12,0,0,1-3.39-1.49c-5.65-3.89-11.25-7.86-16.91-11.74a3,3,0,0,1-1.3-3.89C621.29,361.66,622.28,358.56,623.41,355Z" transform="translate(-453.46 -68.75)"/><path id="Core-12" data-name="Core" class="cls-12" d="M770.16,320.53c.89,3.75,1.67,6.41.23,9.15-2.57,4.9-4.9,9.94-7.75,14.67-2,3.4-3,3.37-6,.79-3.28-2.89-6.44-5.94-9.9-9.15C755.15,331.3,765.42,330.86,770.16,320.53Z" transform="translate(-453.46 -68.75)"/><path id="Core-13" data-name="Core" class="cls-12" d="M632.86,336c-4.22,3.7-8.09,7.19-12.12,10.47-.47.39-2.29-.05-2.8-.67a49.84,49.84,0,0,1-9.47-18.14c-.52-1.83.18-4,.69-6.28C614.05,330.74,624,331.35,632.86,336Z" transform="translate(-453.46 -68.75)"/><path id="Core-14" data-name="Core" class="cls-13" d="M609.94,313.42c.65-1.71,1-2.71,1.39-3.71,1,.51,2.3.78,3.06,1.56a65.13,65.13,0,0,0,16.67,12c2.09,1.08,3.52,2.47,3.35,5-.1,1.59-.77,2.64-2.46,2.29-6.71-1.37-13.4-3.32-18.37-8.08C611.36,320.37,611,316.27,609.94,313.42Z" transform="translate(-453.46 -68.75)"/><path id="Core-15" data-name="Core" class="cls-13" d="M769,312c-.43,6.56-2,11.67-8.19,13.94-3.88,1.42-7.71,3-11.65,4.22-1.11.35-2.53-.31-3.8-.51a33.08,33.08,0,0,1,1-5c.21-.63,1.3-1,2-1.4A63.7,63.7,0,0,0,765,311.21c.75-.78,2.07-1,3.12-1.52C768.47,310.67,768.87,311.65,769,312Z" transform="translate(-453.46 -68.75)"/><path id="Core-16" data-name="Core" class="cls-14" d="M609.75,339.07c3.44,4.1,6.91,8,10.07,12.19.7.92.61,2.76.34,4.06-.73,3.47-1.75,6.88-2.7,10.47C611.41,360.89,607.25,346,609.75,339.07Z" transform="translate(-453.46 -68.75)"/><path id="Core-17" data-name="Core" class="cls-13" d="M769.94,338.68a33.73,33.73,0,0,1-8.06,27.5c-1-4.7-2-8.91-2.89-13.14a2.56,2.56,0,0,1,.6-1.83C762.88,347.15,766.24,343.14,769.94,338.68Z" transform="translate(-453.46 -68.75)"/><path id="Core-18" data-name="Core" class="cls-6" d="M685.74,534c-6.86-2.11-12.59-4.87-16.33-10.9-5.54-8.93-8.75-18.74-11.26-28.82-4.24-17-6.55-34.39-8-51.87,0-.47-.08-.94-.13-1.41-.75-6.07-.5-6.57,5.73-6.35,8.73.31,17.47.67,26.14,1.64,5.26.59,5.72,1.79,5.71,7.19,0,12.91.08,25.83-.11,38.74-.23,15.45-.69,30.9-1.1,46.34C686.3,530.26,686,531.93,685.74,534Z" transform="translate(-453.46 -68.75)"/><path id="Core-19" data-name="Core" class="cls-6" d="M693.55,533.93c-.3-4.16-.78-8.07-.83-12q-.48-39.75-.82-79.5c0-4,.65-5.07,4.51-5.93A61.5,61.5,0,0,1,707,434.9c6.4-.29,12.82-.2,19.23-.16,2,0,3.83.6,3.6,3.25-1.61,18.23-3.84,36.36-8.07,54.2-2.4,10.12-5.49,20-10.6,29.13C707.36,528.13,701.57,531.94,693.55,533.93Z" transform="translate(-453.46 -68.75)"/><path id="Core-20" data-name="Core" class="cls-6" d="M686.81,339.33c-.34,3.47-.44,6.5-1,9.43a5.54,5.54,0,0,1-2.29,3.32c-8.59,5.25-17.27,10.35-26,15.46-1.78,1-3.68,1.89-5.52,2.85-1.27.66-2.14.49-2.51-1.05-2.42-10.07-5-20.11-2.82-30.64.77-3.66,2.38-6.41,5.86-8.07,7.91-3.76,15.72-7.72,23.65-11.44,4.26-2,7.48-.75,8.46,3.81C685.86,328.48,686.17,334.15,686.81,339.33Z" transform="translate(-453.46 -68.75)"/><path id="Core-21" data-name="Core" class="cls-6" d="M728.86,370.92a31.64,31.64,0,0,1-3.67-1.64c-7.38-4.37-14.71-8.81-22.07-13.2a42,42,0,0,0-5.67-3.15c-2.71-1.08-4.28-3-4.23-5.74.14-7.43.1-14.91,1-22.27.83-6.72,4.44-8.11,10.44-5.12,7.42,3.69,14.86,7.35,22.35,10.9a9.67,9.67,0,0,1,5.56,7.34c2.26,11.07,0,21.71-3.06,32.28C729.46,370.47,729.24,370.58,728.86,370.92Z" transform="translate(-453.46 -68.75)"/><path id="Core-22" data-name="Core" class="cls-5" d="M672.58,431.25c-6.28-.52-12.57-1.06-18.85-1.53a3.86,3.86,0,0,1-3.75-3.23,48.36,48.36,0,0,1-.82-20.73,3,3,0,0,1,2-1.93c7.45-1.58,14.91-3.16,22.43-4.37,3.41-.55,7-.25,10.43-.36,1.93-.06,3.13.75,3.16,2.75.1,6.4.22,12.8.14,19.2a51.63,51.63,0,0,1-.89,7.29c-.28,1.83-1.31,2.71-3.32,2.64-3.49-.13-7,0-10.47,0Z" transform="translate(-453.46 -68.75)"/><path id="Core-23" data-name="Core" class="cls-5" d="M706.73,430.94c-3.39,0-6.8-.13-10.18.05-2.29.11-3.37-.9-3.62-3-.36-3-.79-6-.86-9-.14-5.28-.12-10.57,0-15.84.09-3.57.75-3.85,4.24-4.15,8.65-.72,16.78,1.91,25.07,3.56a33.24,33.24,0,0,0,5.29.9c2.72.09,3.94,1.43,3.88,4-.14,5.54,0,11.1-.64,16.59-.53,4.93-1.58,5.62-6.55,6-5.54.43-11.09.67-16.64,1Z" transform="translate(-453.46 -68.75)"/><path id="Core-24" data-name="Core" class="cls-15" d="M692.66,377.24c0-4.25-.08-8.49,0-12.73.12-4.87,3.13-6.61,7.29-4.35,6.79,3.69,13.54,7.45,20.39,11,6.18,3.22,8.85,8.4,9.09,15.13.09,2.45.46,4.9.31,7.33a3.17,3.17,0,0,1-2,2.32c-9.65,1.14-19.34,1.82-29,.6-5.36-.68-6.12-1.77-6.15-7.16,0-4,0-8.11,0-12.16Z" transform="translate(-453.46 -68.75)"/><path id="Core-25" data-name="Core" class="cls-15" d="M686.55,372.25c0,6.57,0,13.14,0,19.71a3.78,3.78,0,0,1-3.73,4.14,103.55,103.55,0,0,1-12.9,1.06c-5.91-.05-11.82-.69-17.73-1-2-.1-2.87-.9-2.63-3,.42-3.73.69-7.48,1.08-11.21A11.21,11.21,0,0,1,656.4,373q12.09-7,24.42-13.53c2.51-1.34,5.3.4,5.67,3.44s.41,6.19.59,9.29Z" transform="translate(-453.46 -68.75)"/><path id="Core-26" data-name="Core" class="cls-8" d="M1154.9,437.53c.57-2.16.83-4.48,1.8-6.44a25.65,25.65,0,0,1,4.68-6.83,3.89,3.89,0,0,1,6,.26c4.43,5.83,8.81,11.73,12.78,17.87,2.31,3.57,1.68,5.11-1.9,7.48-3.13,2.08-6.69,3.6-9.56,6-3.37,2.78-6.22,6.2-9.27,9.37-.69.72-1.24,1.57-2.3,2.93-2.51-7.23-1.8-14.26-3.06-21,0-.29,0-.58.05-.87.11-1.61.21-3.21.32-4.82Z" transform="translate(-453.46 -68.75)"/><path id="Core-27" data-name="Core" class="cls-8" d="M1301.79,468.3c-1.09-1.4-1.65-2-2.09-2.69A37.26,37.26,0,0,0,1285.86,453a70.19,70.19,0,0,1-6.24-3.85c-2-1.42-2.88-3.53-1.43-5.66,4.45-6.51,9-13,13.72-19.27,1.42-1.9,3.63-1.22,5.42-.15,2.92,1.76,4.38,4.62,5.24,7.78,2.06,7.56,2.13,15.28,1.5,23-.28,3.38-.82,6.73-1.31,10.08A30.1,30.1,0,0,1,1301.79,468.3Z" transform="translate(-453.46 -68.75)"/></g><g id="Quads" data-part="Quads"><path id="Quad" class="cls-6" d="M616.65,497.66c8.45,28.24,17.1,56.22,25.15,84.39,6.09,21.32,6.8,43.29,6.26,65.32-.31,13-1.16,26-4,38.74a48.39,48.39,0,0,1-2.93,9.11c-.69,1.57-2.36,3.82-3.53,3.78-1.49,0-3.52-1.79-4.27-3.31-2.52-5.15-5.14-10.37-6.69-15.84-5.57-19.57-11-39.2-15.93-58.93-3.7-14.79-6.88-29.72-9.75-44.7-3.32-17.31-1.12-34.43,3.93-51.09,2.61-8.61,6.56-16.81,9.93-25.18A11.93,11.93,0,0,1,616,498C616,497.88,616.26,497.85,616.65,497.66Z" transform="translate(-453.46 -68.75)"/><path id="Quad-2" data-name="Quad" class="cls-6" d="M762.9,497.08c.77,1.28,1.27,2,1.69,2.84a128.61,128.61,0,0,1,15.16,63.65c-.24,12.95-3,25.64-6.23,38.15q-9.62,37.78-19.87,75.4c-1.73,6.31-4.65,12.32-7.41,18.29-.75,1.63-2.84,3.52-4.4,3.6-1.19.06-3.19-2.35-3.67-4a149.47,149.47,0,0,1-4.66-19.45c-2.25-15.42-2.57-31-2.28-46.54.43-23.28,5.1-45.82,12-68,5.58-18,11.35-35.93,17-53.91C761.17,504,761.9,500.83,762.9,497.08Z" transform="translate(-453.46 -68.75)"/><path id="Quad-3" data-name="Quad" class="cls-10" d="M713.8,670.08a92.3,92.3,0,0,1-4.08-30.3c.43-20.35,5.15-39.91,11-59.27,7.63-25.34,18.24-49.5,28.9-73.65,1.89-4.26,3.84-8.5,6.08-12.63C740.56,552.5,724,610.38,713.8,670.08Z" transform="translate(-453.46 -68.75)"/><path id="Quad-4" data-name="Quad" class="cls-9" d="M665.59,670c-9.32-54.69-24-107.79-38.3-161-1.39-5.19-2.85-10.35-4.27-15.53,0-.16.07-.36.24-1.08,1.86,4.12,3.55,7.83,5.21,11.55,10,22.39,19.88,44.82,27.55,68.14,6.32,19.2,11.58,38.66,13.18,58.9,1,12.18.54,24.32-2.7,36.21C666.26,668.06,665.93,668.93,665.59,670Z" transform="translate(-453.46 -68.75)"/><path id="Quad-5" data-name="Quad" class="cls-8" d="M627.16,482.59c4.66,4.59,9.74,8.83,13.91,13.83a168,168,0,0,1,34.35,69c1.06,4.41-2.82,13.43-6.79,15.77-1.86,1.1-3,.84-3.82-1.39-5.23-14.54-10.18-29.19-15.92-43.53-5.88-14.68-12.56-29-18.86-43.55-1.09-2.5-2.07-5.05-3-7.61a11,11,0,0,1-.39-2.09Z" transform="translate(-453.46 -68.75)"/><path id="Quad-6" data-name="Quad" class="cls-7" d="M753.07,483.3c-1.18,3-2.07,6.21-3.59,9.06-10.28,19.37-17.61,40-25.17,60.48-3.26,8.84-6.37,17.73-9.61,26.58-1,2.82-2.14,3.08-4.58,1.33-3.78-2.71-7.12-11.47-6-15.84a169.31,169.31,0,0,1,33.47-67.57c4.33-5.28,9.44-9.92,14.2-14.86Z" transform="translate(-453.46 -68.75)"/><path id="Quad-7" data-name="Quad" class="cls-10" d="M599.54,591.91c1,3,2.53,5.82,3,8.85,4.25,25.53,10.33,50.55,19.29,74.87,2.25,6.12,3.25,12.72,4.48,19.17a15.7,15.7,0,0,1-.65,6.41c-.28,1.12-1.4,2-2.14,3-.93-.83-2.22-1.48-2.72-2.51-1.46-3-2.56-6.27-3.89-9.39-2.49-5.89-5-11.79-7.58-17.63a95.41,95.41,0,0,1-7.15-26.38c-1.56-11.56-2.44-23.22-3.5-34.85-.54-6-.88-12-1.21-18a16.21,16.21,0,0,1,.52-3.34Z" transform="translate(-453.46 -68.75)"/><path id="Quad-8" data-name="Quad" class="cls-9" d="M781.75,592.17c.07,2.73.36,5.48.17,8.19-.83,11.56-1.58,23.13-2.77,34.65-1.22,11.82-3.12,23.59-7.2,34.8-2.46,6.8-5.82,13.27-8.65,19.94-1.69,4-3,8.12-4.77,12.1-.42,1-1.64,1.62-2.49,2.42-.79-1-2.24-1.92-2.26-2.9-.11-4.94-.55-10,.44-14.81,1.26-6,3.74-11.83,5.75-17.71a413.75,413.75,0,0,0,16.95-68.52c.47-2.92,2-5.67,3-8.5Z" transform="translate(-453.46 -68.75)"/><path id="Quad-9" data-name="Quad" class="cls-11" d="M728.88,626.52c-.19,4.19-.42,8.38-.58,12.57-.57,15.3,1.18,30.45,3,45.61a80,80,0,0,1,.33,13.76c-.19,3.55-2.55,6.23-5.23,8.42-2.93,2.39-6,1.25-6.24-2.48-.81-12.94-2.09-25.89-1.93-38.82C718.41,651.89,722.59,638.9,728.88,626.52Z" transform="translate(-453.46 -68.75)"/><path id="Quad-10" data-name="Quad" class="cls-7" d="M651.68,626.34c2.35,7.39,5,14.7,7,22.18,4,15,3.37,30.21,1,45.42-.46,2.95,0,6-.46,9-.23,1.69-.94,4.11-2.12,4.63s-3.67-.39-4.9-1.46c-3.06-2.68-5-6.2-4.76-10.43.44-6.67.92-13.34,1.75-20a233.52,233.52,0,0,0,1.55-46.23c-.07-1,0-1.94,0-2.91Z" transform="translate(-453.46 -68.75)"/><path id="Quad-11" data-name="Quad" class="cls-12" d="M673.43,630.89q-2-11.82-3.92-23.64c-.83-4.92-1.81-9.83-2.43-14.78a7.32,7.32,0,0,1,1-4.69c3.09-4.5,6.47-8.8,9.81-13.13.41-.53,1.46-1.2,1.78-1a2.7,2.7,0,0,1,1.25,1.91,61.86,61.86,0,0,1-.26,8.17q-2.43,20.89-5,41.77a40.71,40.71,0,0,1-1.53,5.59Z" transform="translate(-453.46 -68.75)"/><path id="Quad-12" data-name="Quad" class="cls-10" d="M705.16,631.26c-.88-4.18-2.09-8.33-2.58-12.56-1.55-13.18-2.83-26.4-4.19-39.62a13.18,13.18,0,0,1,0-3.38,8.11,8.11,0,0,1,1.06-2.15c.7.38,1.62.59,2.06,1.17,3.3,4.24,6.68,8.44,9.64,12.91a8.51,8.51,0,0,1,1.07,5.55c-2,12.65-4.23,25.26-6.39,37.89Z" transform="translate(-453.46 -68.75)"/></g><g id="Shoulders" data-part="Shoulders"><path id="Shoulder" class="cls-8" d="M1275,214.83a53.84,53.84,0,0,1-6,.68c-9.78.05-19.58,0-29.37,0-2.85,0-4.47-1.36-4.57-4.21-.19-5.09-.29-10.18-.39-15.26-.19-9.62-.35-19.23-.54-28.85-.1-4.67.89-5.87,5.52-6.38a16.7,16.7,0,0,1,3.39,0c4.41.39,5.46,1.63,5.48,6.1.07,11.45,1.71,22.6,7.21,32.79a18.32,18.32,0,0,0,6,6.06c3.51,2.35,7.44,4,11.14,6.11a16,16,0,0,1,2.46,2.09C1275.2,214.22,1275.12,214.53,1275,214.83Z" transform="translate(-453.46 -68.75)"/><path id="Shoulder-2" data-name="Shoulder" class="cls-8" d="M1182.88,214.44a32.52,32.52,0,0,1,3.67-2.91c3.53-2,7.3-3.58,10.64-5.83a18.75,18.75,0,0,0,6-6c5.43-9.9,7.17-20.75,7.17-31.91,0-5.6,1.23-7,6.87-7.07a23.71,23.71,0,0,1,3.91.47c2.56.41,3.64,1.92,3.6,4.53-.28,15-.47,30-.75,45-.07,3.28-1.32,4.78-4.31,4.78-11.29,0-22.57-.2-33.85-.35A18.07,18.07,0,0,1,1182.88,214.44Z" transform="translate(-453.46 -68.75)"/><path id="Shoulder-3" data-name="Shoulder" class="cls-10" d="M629.55,226.16a73.48,73.48,0,0,0,7.31-4.06c6.38-4.6,12.62-9.42,19-14.08a16.27,16.27,0,0,1,3.2-1.44c.4,1,1.19,2,1.13,3q-.51,8.41-1.38,16.79c-.26,2.55-2.07,3.71-4.49,3.83a67.34,67.34,0,0,1-21.75-2.32A16,16,0,0,1,629.55,226.16Z" transform="translate(-453.46 -68.75)"/><path id="Shoulder-4" data-name="Shoulder" class="cls-10" d="M749.5,226.69c-1.64.62-3.19,1.57-4.83,1.77-6,.73-12.11,1.42-18.19,1.72-4.29.21-5.55-.77-6.08-4.94A160.8,160.8,0,0,1,719.34,209c-.07-2.61,1.55-3.37,3.4-1.62A119,119,0,0,0,749,225.72C749.12,225.79,749.16,226,749.5,226.69Z" transform="translate(-453.46 -68.75)"/><path id="Shoulder-5" data-name="Shoulder" class="cls-5" d="M1102.41,295c0-2.6,0-4.85,0-7.11q-.08-11.88-.17-23.76c-.1-11.7,5.67-20.17,14.66-26.94,6-4.51,12.23-8,20.16-7.5,6.27.42,11.08,3.56,16.3,7.41-3.23,2.27-6,4.35-8.89,6.21-9.64,6.18-13.42,15.45-13.82,26.39a13.42,13.42,0,0,1-3.43,9c-6.53,7.09-13.93,13-23.26,16C1103.62,294.81,1103.25,294.82,1102.41,295Z" transform="translate(-453.46 -68.75)"/><path id="Shoulder-6" data-name="Shoulder" class="cls-6" d="M1305.77,237.18c8.8-7.94,19.41-10,29-4.66,8.12,4.48,15.4,10,19.15,18.89a28.57,28.57,0,0,1,2.49,10c.26,10.64,0,21.3-.07,31.95a13.46,13.46,0,0,1-.22,1.6,43.15,43.15,0,0,1-15.05-7.7c-2.19-1.79-4.33-3.63-6.44-5.51-4-3.51-6.35-7.64-6.51-13.21-.36-11.93-5.81-21-16.22-27C1309.85,240.32,1308,238.75,1305.77,237.18Z" transform="translate(-453.46 -68.75)"/><path id="Shoulder-7" data-name="Shoulder" class="cls-6" d="M776,223.41c4.13,1.16,8.52,1.77,12.34,3.57,9.47,4.47,17.09,11.5,23.11,19.89,10.53,14.67,5.62,35-10.33,44.92a31.4,31.4,0,0,1-3.18,1.82c-2.58,1.24-5,1-6.88-1.28-3.34-4-6.73-7.87-10-11.91a19.45,19.45,0,0,1-4.23-12.05c-.08-3.2-.2-6.41,0-9.61.31-6.24-2-11.15-7.39-14.24a136.33,136.33,0,0,0-13-6.17c-2.9-1.3-3.31-1.76-1.82-4.59a11.91,11.91,0,0,1,3.43-4,32.29,32.29,0,0,1,17.75-5.69Z" transform="translate(-453.46 -68.75)"/><path id="Shoulder-8" data-name="Shoulder" class="cls-6" d="M603,224.08a34.13,34.13,0,0,1,18.8,5.92,8.5,8.5,0,0,1,2,1.92c2.68,3.51,2.07,5.12-1.93,6.91a114.38,114.38,0,0,0-13.29,6.76c-4.12,2.53-6,6.64-5.92,11.54,0,3.86.09,7.73-.06,11.59-.26,6.28-3.45,11.22-7.47,15.75-2.19,2.47-4.32,5-6.48,7.48s-4.23,3.15-7.25,1.59c-18.88-9.7-25.47-32.37-11.7-49a68.54,68.54,0,0,1,19.94-16.92A28.84,28.84,0,0,1,603,224.08Z" transform="translate(-453.46 -68.75)"/></g><g id="Calves" data-part="Calves"><path id="Calve" class="cls-5" d="M1170.14,726.59c-.38,8.08-.81,16.15-1.13,24.24-.42,10.83-.93,21.66-1.09,32.49-.28,19.14-.3,38.28-.48,57.42a75.68,75.68,0,0,1-.59,11.48,12.77,12.77,0,0,1-3.07,5.9c-3.79,4.34-10.62,3.29-12.36-2.15a130.15,130.15,0,0,1-4.82-20,207.44,207.44,0,0,1-.74-58.62c1.73-12.8,4.66-25.26,12.29-36,3.62-5.12,7.57-10,11.37-15Z" transform="translate(-453.46 -68.75)"/><path id="Calve-2" data-name="Calve" class="cls-6" d="M1288.93,726.59c15.09,15,22.57,33.1,24.55,53.82a219.88,219.88,0,0,1-1.81,59.15c-.92,5.27-2.41,10.45-3.8,15.63-.75,2.81-2.42,4.84-5.58,5.29-3.41.48-6.52-.35-8-3.45s-2.85-6.71-2.91-10.11c-.22-11.49.38-23,.26-34.49-.19-17.25-.62-34.49-1.15-51.73-.32-10.54-1-21.07-1.57-31.61C1288.9,728.27,1288.93,727.45,1288.93,726.59Z" transform="translate(-453.46 -68.75)"/><path id="Calve-3" data-name="Calve" class="cls-5" d="M1175,727.16c4.74,10.41,9.43,20.67,14.08,31,4.32,9.55,6.4,19.73,7.51,30,1.23,11.31,2.16,22.69,2.49,34.07.39,13.28-5.16,24.52-13.84,34.27-2,2.21-4.23,5-7.62,3.8s-3.61-4.49-3.63-7.4c-.06-7.24,0-14.5.35-21.73,1.12-21.19,1.36-42.36.55-63.57-.49-12.79-.11-25.61-.1-38.41A17.6,17.6,0,0,1,1175,727.16Z" transform="translate(-453.46 -68.75)"/><path id="Calve-4" data-name="Calve" class="cls-6" d="M1283.84,727.26c1.31,16.18.66,32.74-.13,49.32-.54,11.2-.25,22.45,0,33.66.3,13.48,1,26.94,1.39,40.42a19.86,19.86,0,0,1-1,6.36c-1.18,3.78-4.3,5-7.15,2.21a64.19,64.19,0,0,1-9.73-11.6,48.83,48.83,0,0,1-7.58-28.26c.56-16.61,2.1-33.12,6.23-49.26a103.9,103.9,0,0,1,5.59-15.37C1275.43,745.43,1279.75,736.26,1283.84,727.26Z" transform="translate(-453.46 -68.75)"/><path id="Calve-5" data-name="Calve" class="cls-8" d="M643.4,886.52c-2.22-25.21-4.36-50.43-6.69-75.64-.72-7.81,1.13-14.93,4.69-21.75,3.88-7.41,7.76-14.83,11.84-22.61.42,2.88.88,5.56,1.21,8.25,1.8,15,3.84,30,5.26,45.12.75,8-1.21,15.77-3.74,23.51-3.74,11.43-6.52,23.18-9.72,34.79-.79,2.85-1.67,5.69-2.51,8.53Z" transform="translate(-453.46 -68.75)"/><path id="Calve-6" data-name="Calve" class="cls-8" d="M735.44,886.56C734,881,732.68,875.49,731.12,870c-2.78-9.77-5.42-19.59-8.64-29.21-3-9.1-3.44-18.4-2.51-27.67,1.56-15.6,3.85-31.12,6.47-46.7,4.85,9.86,9.81,19.66,14.51,29.58,3.27,6.92,1.73,14.3,1.15,21.46-1.45,17.74-3.19,35.45-4.78,53.17-.47,5.25-.81,10.51-1.2,15.77Z" transform="translate(-453.46 -68.75)"/></g><g id="Shins" data-part="Shins"><path id="Shin" class="cls-8" d="M765.54,727.44c5.09,58.6,2.12,116.16-21.71,171l-1.54.15c-.48-1.66-1.39-3.33-1.37-5,.07-8.38.09-16.79.68-25.15,2.13-29.94,8-59.35,13.09-88.86,2.76-16,5.36-31.95,8.09-47.91a36.09,36.09,0,0,1,1.43-4.61Z" transform="translate(-453.46 -68.75)"/><path id="Shin-2" data-name="Shin" class="cls-8" d="M636.23,898.82c-.83-1.54-1.65-2.79-2.21-4.15-9.56-23.21-16.39-47.12-19-72.19-1.89-18.39-4-36.77-3.49-55.29.32-12.34,1.26-24.66,2-37a16.48,16.48,0,0,1,.68-2.88l1-.17a47.53,47.53,0,0,1,1.53,5.29q6.15,35.65,12.2,71.32c5,29.28,10.11,58.54,9.5,88.41C638.41,894.37,638.88,896.76,636.23,898.82Z" transform="translate(-453.46 -68.75)"/><path id="Shin-3" data-name="Shin" class="cls-13" d="M770.44,753.26a22.44,22.44,0,0,1,1.37,4.31c1,9.73,2.58,19.47,2.68,29.22.16,16.57,0,33.21-1.25,49.72-.94,12-3.79,23.77-6.18,35.57-2,9.78-4.45,19.47-6.82,29.17a36.16,36.16,0,0,0-.6,14.28,30.51,30.51,0,0,1-.12,5.56l-1.3.36a32.21,32.21,0,0,1-2.94-4.41A34.74,34.74,0,0,1,752.44,895c2.52-12,5.78-23.8,8.12-35.81,3.61-18.48,7.14-37,9.81-55.62,1.14-7.92.12-16.18-.13-24.28-.22-7-.75-14.1-1.11-21.16-.08-1.52,0-3.06,0-4.59Z" transform="translate(-453.46 -68.75)"/><path id="Shin-4" data-name="Shin" class="cls-13" d="M610.05,753.43a19.69,19.69,0,0,1,.36,3c-.49,15.72-1.93,31.48-1.25,47.15.54,12.53,3.23,25,5.74,37.38,3.36,16.51,7.42,32.88,11.27,49.29,2,8.68,2,17.2-1.51,25.51a21.64,21.64,0,0,1-2.15,4c-.42.59-1.3.85-2,1.26-.32-.73-.65-1.46-.94-2.19a1,1,0,0,1,0-.57c2.35-11.49-1.93-22.14-4.24-33-2.77-13.08-6.26-26.05-8.15-39.26-1.71-11.89-2.08-24-2.31-36.06-.24-12.8.17-25.62.73-38.41.24-5.31,1.59-10.59,2.5-15.87a11,11,0,0,1,.9-2.25Z" transform="translate(-453.46 -68.75)"/><path id="Shin-5" data-name="Shin" class="cls-9" d="M1167.83,964.58c-.92-5.07-2-10.11-2.72-15.2-2.69-18.74-5.12-37.51-8-56.22-.78-5.08-2.64-10-4.13-15s.12-8.72,4.18-9.78c4.86-1.28,9.79,1.69,10.25,6.62,1.08,11.72,2,23.46,2.76,35.21s1.37,23.72,1.43,35.58c0,5.78-1.37,11.57-2.17,17.34a4.63,4.63,0,0,1-.73,1.41Z" transform="translate(-453.46 -68.75)"/><path id="Shin-6" data-name="Shin" class="cls-11" d="M1290,964.55c-.35-1.24-.74-2.46-1-3.71-2.58-11.28-1.69-22.69-1-34.05,1-16.92,2.23-33.82,3.38-50.73.23-3.23,1.49-5.91,4.7-7.1s6-1.08,8.7,1.32c2.49,2.23,2.07,4.75,1.37,7.52-1.91,7.46-4.23,14.87-5.47,22.45-2.13,13-3.49,26.12-5.33,39.18-1.06,7.55-2.4,15.06-3.65,22.58a19.9,19.9,0,0,1-.81,2.59Z" transform="translate(-453.46 -68.75)"/><path id="Shin-7" data-name="Shin" class="cls-9" d="M1281.35,963.75c-1-7.83-1.8-15.68-3-23.47-1.41-9-3.62-17.93-4.67-27-1.38-12-2.12-24-2.81-36-.29-4.95,6.58-8.9,11-6.54a4.32,4.32,0,0,1,1.92,3.1c.46,9.78.86,19.57,1,29.35.1,6.31-.13,12.63-.43,18.93-.63,13.45-1.4,26.89-2.12,40.34a9.6,9.6,0,0,1-.24,1.28Z" transform="translate(-453.46 -68.75)"/><path id="Shin-8" data-name="Shin" class="cls-9" d="M1176.85,964.15c-.29-3.72-.74-7.44-.84-11.16q-1-34.89-1.72-69.8c-.06-3.27.61-6.55.9-9.83.17-1.93,1.35-2.73,3.1-3.09a8.05,8.05,0,0,1,9.88,8.08c-.5,15.16-1.65,30.22-4.75,45.16-2.44,11.78-3.56,23.83-5.26,35.76l-.69,4.75Z" transform="translate(-453.46 -68.75)"/><path id="Shin-9" data-name="Shin" class="cls-12" d="M657.25,719.71c3.49,4.4,3.85,8.49,2.46,12.52-4.15,12-8.31,24-13,35.85-2.67,6.72-6.25,13.09-9.68,19.48-.93,1.72-3.6,4.4-4.15,4.11-2.41-1.26-1.33-3.93-1-6.06,1.33-8.08,4.52-15.54,8.18-22.78,6-11.9,11.46-24,14.07-37.15C654.54,723.8,656,722.13,657.25,719.71Z" transform="translate(-453.46 -68.75)"/><path id="Shin-10" data-name="Shin" class="cls-12" d="M722,719.7c1.31,2.32,2.84,3.94,3.19,5.8,2.81,14.74,9.43,28,16,41.24a62.92,62.92,0,0,1,6.59,20.93,4.2,4.2,0,0,1,.12,1.67,21.45,21.45,0,0,1-1.34,2.61c-.75-.47-1.81-.77-2.21-1.45-2.79-4.8-5.64-9.58-8.1-14.55A263.79,263.79,0,0,1,720,733.5C718.68,729,718.42,724.64,722,719.7Z" transform="translate(-453.46 -68.75)"/></g><g id="Glutes" data-part="Glutes"><path id="Glute" class="cls-4" d="M1227.5,512.27c-.54,12.21-1.68,24.35-4.56,36.35a76,76,0,0,0-2,18.72c.15,8.5-4.37,11.73-11.89,12.89-5.67.87-11-.83-16.3-2.58-3.74-1.24-7.65-1.91-11.4-3.11a16.66,16.66,0,0,1-5.74-2.87c-14.13-12.15-23.35-27.2-26.27-45.8-2-13,3.81-22.35,13.74-29.88A135.24,135.24,0,0,1,1202,475.11a34.64,34.64,0,0,1,4.9-1.29c3.62-.62,6.79,0,8.68,3.61a3.35,3.35,0,0,0,.52.67C1225.22,487.7,1228,499.44,1227.5,512.27Z" transform="translate(-453.46 -68.75)"/><path id="Glute-2" data-name="Glute" class="cls-4" d="M1238.83,564c-1.13-6.08-2.15-12.19-3.41-18.25-3.2-15.38-5.24-30.77-3.09-46.55,1-7.56,4.62-13.62,9.15-19.39.17-.22.37-.43.54-.65,4.87-6.1,6.8-6.7,14.21-4.25a138.32,138.32,0,0,1,40.38,21.7c11.82,9,15.5,20.47,12,34.68-3.78,15.42-11.92,28.18-23.39,38.92a17.48,17.48,0,0,1-10,4.77c-3.58.46-7,2-10.51,3.16-4.77,1.62-9.61,2.9-14.68,2.13-10.06-1.53-12.4-6-12-13.31,0-.94,0-1.88,0-2.82Z" transform="translate(-453.46 -68.75)"/><path id="Glute-3" data-name="Glute" class="cls-8" d="M1307.42,498.54c-1.18-.72-2.13-1.23-3-1.85-7.06-5-14.17-9.95-21.14-15.08-7.15-5.25-15.48-7.58-23.76-10.1-1.43-.44-2.86-.86-5.24-1.56,2.27-1.7,3.81-3.44,5.75-4.21a59.76,59.76,0,0,1,24.22-4.58,11.83,11.83,0,0,1,9.57,4.6A69.62,69.62,0,0,1,1307.55,497,8.21,8.21,0,0,1,1307.42,498.54Z" transform="translate(-453.46 -68.75)"/><path id="Glute-4" data-name="Glute" class="cls-8" d="M1204.6,469.91c-4.92,1.51-8.83,2.82-12.81,3.9-9,2.47-16.4,7.89-23.82,13.25-5.24,3.79-10.52,7.54-16.34,11.71a21.34,21.34,0,0,1,0-3.84,74.4,74.4,0,0,1,12.78-28.39,12.93,12.93,0,0,1,10.93-5.41,60.5,60.5,0,0,1,23.66,4.69C1200.84,466.54,1202.29,468.18,1204.6,469.91Z" transform="translate(-453.46 -68.75)"/></g><g id="Back" data-part="Back"><path id="Back-2" data-name="Back" class="cls-6" d="M1267.89,297.12c2.29,2.36,4.62,4.16,6.14,6.48a16.1,16.1,0,0,0,6.76,5.74,31.12,31.12,0,0,0,21.49,2.19c5.07-1.17,10-2.82,15.38-4.35a14,14,0,0,1,0,2.33c-.91,6.71-2.75,13.16-6.57,18.78-3.45,5.07-4.14,10.76-5,16.57-1.43,9.39-3.28,18.72-5,28.07-1.85,10.19-4.4,20.31-5.41,30.58-1.12,11.34-6.77,19.94-13.8,28.09-1.37,1.58-3,3-4.83,4.85-2-5.65-3.75-10.62-5.65-15.51-7.47-19.14-15-38.23-22.46-57.39-1.67-4.29-2.87-8.77-4.22-13.18a11,11,0,0,1,2-10.88c6-7.34,8.64-16.47,12.7-24.84,2.31-4.75,4.44-9.58,6.67-14.36C1266.5,299.46,1267,298.68,1267.89,297.12Z" transform="translate(-453.46 -68.75)"/><path id="Back-3" data-name="Back" class="cls-6" d="M1181.84,436.44a66.77,66.77,0,0,1-5.2-5.34c-3.13-4-6.61-7.9-8.91-12.37-2-4-3-8.64-3.9-13.1q-4.78-23.53-9.17-47.16c-1.08-5.82-1.7-11.75-2.3-17.65a26.74,26.74,0,0,0-4.32-12.1,46.3,46.3,0,0,1-6.55-17.94,39,39,0,0,1-.23-4.5c1.21.61,2,1,2.76,1.38,11.35,5,22.87,7.23,34.55,1.33,2.38-1.21,4.24-3.52,6.22-5.44s4-4.12,6.44-6.7c2.47,5.28,4.6,9.75,6.66,14.25,3,6.6,5.87,13.28,9,19.82a54.09,54.09,0,0,0,5.19,8.38c2.75,3.73,3.53,7.62,1.9,12-4.55,12.17-9.06,24.36-13.64,36.52q-8.52,22.62-17.14,45.21C1182.87,433.94,1182.48,434.86,1181.84,436.44Z" transform="translate(-453.46 -68.75)"/><path id="Back-4" data-name="Back" class="cls-6" d="M1236.89,351.91c-.35-3.29-.71-6-.91-8.67-2.2-28.76-4.33-57.54-3.41-86.42.19-5.82,1.07-11.62,1.59-17.44.88-10,7.3-15.46,16.24-17.52,13.17-3.05,26.5-3.62,39.76,1.58-.92,1.55-1.93,3.08-2.79,4.7-6,11.31-9.41,23.6-13.06,35.79-5.13,17.15-9.69,34.51-18.66,50.23-2.38,4.18-4.69,8.4-7.22,12.48a82.53,82.53,0,0,0-9.57,21.34c-.26.91-.56,1.8-.89,2.68C1237.88,350.9,1237.63,351.07,1236.89,351.91Z" transform="translate(-453.46 -68.75)"/><path id="Back-5" data-name="Back" class="cls-6" d="M1169,223.24c7.94-2.63,16-4.22,24.39-3.52,4,.33,8,.89,12.06,1.37a25.34,25.34,0,0,1,15.1,7.68,13.26,13.26,0,0,1,3.39,7.24,252,252,0,0,1,2.41,26.12c.65,29.44-1.47,58.78-4,88.08a13.45,13.45,0,0,1-.36,1.52c-.57-.75-1.09-1.16-1.22-1.66-2.77-11.15-8.58-20.85-14.45-30.53-9.19-15.13-14.68-31.74-19.66-48.59-3.59-12.1-7.69-24-11.86-35.95C1173.37,231.05,1171.07,227.41,1169,223.24Z" transform="translate(-453.46 -68.75)"/><path id="Back-6" data-name="Back" class="cls-6" d="M1187.74,291.45c.08,2.76-1.19,3.95-3.27,3.82a15.7,15.7,0,0,1-5.73-1.29c-7.11-3.44-14.2-6.93-21.12-10.74-6.67-3.68-11-9.64-14.22-16.39-1.63-3.39-3.09-6.87-4.75-10.25-.92-1.89-.68-3.21,1.27-4.14,9.44-4.47,18.83-9,28.32-13.39,2.72-1.25,4.55-.47,5.77,2.28a55.54,55.54,0,0,1,3,8.5c3.46,13,6.81,26,10.2,39.07C1187.43,289.91,1187.63,290.93,1187.74,291.45Z" transform="translate(-453.46 -68.75)"/><path id="Back-7" data-name="Back" class="cls-6" d="M1275,295.33c-3.14-.06-4.45-1.7-3.7-4.61,1.3-5,2.92-9.93,4.2-14.94,2.33-9.11,4.45-18.28,6.8-27.39a44.6,44.6,0,0,1,2.78-7.37c1-2.19,3-3.08,5.17-2.07q14.61,6.74,29.07,13.76a3.06,3.06,0,0,1,1.28,2.66c-4,9.52-7.47,19.58-16.44,25.84a107.32,107.32,0,0,1-26.81,13.67A13.77,13.77,0,0,1,1275,295.33Z" transform="translate(-453.46 -68.75)"/><path id="Back-8" data-name="Back" class="cls-7" d="M1276.91,297.18c2.28-.63,4.3-1.33,6.37-1.74,13.68-2.7,24.33-10.21,33-20.85,1.34-1.65,1.91-3.9,3.11-5.69.65-1,2-2.27,2.82-2.14a3.68,3.68,0,0,1,2.34,2.68c.22,4.39.66,8.9-.12,13.16-3.49,19-21,27.72-40.17,20.3C1281.48,301.85,1278.32,301.24,1276.91,297.18Z" transform="translate(-453.46 -68.75)"/><path id="Back-9" data-name="Back" class="cls-8" d="M1161.65,305.53c-15.06,0-26.45-10.5-27.57-25.52a51.23,51.23,0,0,1,.1-9.83c.16-1.29,1.71-2.42,2.63-3.63,1,1,2.49,1.71,3.11,2.9,7.77,14.62,20.37,22.44,36.07,26a19,19,0,0,1,3.28.83,13.48,13.48,0,0,1,2.38,1.67c-.71.94-1.24,2.16-2.17,2.77C1175.41,303.39,1167,305.54,1161.65,305.53Z" transform="translate(-453.46 -68.75)"/></g><g id="LowerBack" data-part="LBack"><path id="LowerBack-2" data-name="LowerBack" class="cls-6" d="M1238.65,476.15c-6.65-16.09-3.76-104.89,2.42-114a8.31,8.31,0,0,1,1.21,1.45c12.85,25.64,24.08,51.95,32.14,79.51,2.54,8.67,2.21,8.72-5.37,13.57-9.2,5.88-18.35,11.86-27.53,17.79C1240.6,475.06,1239.63,475.58,1238.65,476.15Z" transform="translate(-453.46 -68.75)"/><path id="LowerBack-3" data-name="LowerBack" class="cls-6" d="M1217.68,361.69c6.84,11,8.73,98,2.71,114.51-1.05-.61-2.07-1.17-3-1.79-10.45-6.74-20.85-13.55-31.37-20.19-2.4-1.52-3.24-3.39-2.51-5.92,2.42-8.4,4.39-17,7.57-25.11,6.58-16.83,13.78-33.43,20.85-50.07C1213.49,369.35,1215.58,365.8,1217.68,361.69Z" transform="translate(-453.46 -68.75)"/></g><g id="Triceps" data-part="Triceps"><path id="Tricep" class="cls-8" d="M1106.78,398.79c-.48-2.34-.91-3.74-1-5.17-.91-9.54,1.33-18.72,3-28,1.17-6.56,1.92-13.22,2.47-19.87.4-4.91,1.68-9.3,5.31-12.7,5.23-4.9,10.56-9.68,15.9-14.44a19.41,19.41,0,0,1,3.21-1.85,25.67,25.67,0,0,1,1.5,12.92,104.88,104.88,0,0,1-3,11.71c-1.07,3.7-2.46,7.31-3.38,11.05-1.15,4.67-2.93,9-6.25,12.49a20.52,20.52,0,0,0-5.56,13.55c-.31,5.76-2.88,10.44-6.82,14.5C1110.47,394.63,1109,396.38,1106.78,398.79Z" transform="translate(-453.46 -68.75)"/><path id="Tricep-2" data-name="Tricep" class="cls-8" d="M1351.77,398.27c-5.62-5.88-11.37-11.17-11.77-19.63a21.56,21.56,0,0,0-6-14.25c-3.25-3.48-4.74-7.81-5.91-12.35a101,101,0,0,0-3.64-11.25,36.87,36.87,0,0,1-2-21.34,15.06,15.06,0,0,1,.44-1.63,6.56,6.56,0,0,1,.66-.94,23.65,23.65,0,0,1,3.52,2.19c4.79,4.24,9.47,8.63,14.26,12.87a17.66,17.66,0,0,1,6.37,13.67c0,10.27,2.86,20.1,4.3,30.15.88,6.19.76,12.53,1,18.8a7.54,7.54,0,0,1-.44,2.21A11.32,11.32,0,0,1,1351.77,398.27Z" transform="translate(-453.46 -68.75)"/><path id="Tricep-3" data-name="Tricep" class="cls-8" d="M1129.14,282.42c1.7,10.16,3.36,19.5,4.74,28.89.16,1.14-.86,2.88-1.86,3.69-3.42,2.79-7.22,5.13-10.61,8a111.58,111.58,0,0,0-8,7.86,32.37,32.37,0,0,1-2.16,2.6c-1,.85-2.45,2.11-3.43,1.91s-1.92-1.94-2.25-3.17c-4.32-16.1-.44-29.77,12.39-40.65C1121.47,288.54,1125.08,285.71,1129.14,282.42Z" transform="translate(-453.46 -68.75)"/><path id="Tricep-4" data-name="Tricep" class="cls-15" d="M1329.77,282.63c9.33,6.87,17.85,13.61,22.68,23.91,2.94,6.26,2.71,12.83,2,19.43a44.29,44.29,0,0,1-1.6,7.72c-.65,2.16-2.21,2.42-3.92,1a8.57,8.57,0,0,1-2-2c-4.06-6.81-10.77-10.66-16.86-15.21-.53-.39-1.07-.78-1.63-1.12-2.82-1.74-4-3.85-3.25-7.48C1327,300.36,1328.21,291.78,1329.77,282.63Z" transform="translate(-453.46 -68.75)"/><path id="Tricep-5" data-name="Tricep" class="cls-7" d="M1361.26,326.76c1.48,6.88,3.34,13.7,4.34,20.64,1.25,8.64,2.09,17.37,2.49,26.08.17,3.64-1.14,7.37-2,11-.19.82-1.29,1.44-2,2.15-.67-.7-1.67-1.27-2-2.1-3.49-9.84-7.05-19.67-10.17-29.63a14.29,14.29,0,0,1,0-8.27c2.24-6.82,5.14-13.42,7.78-20.11Z" transform="translate(-453.46 -68.75)"/><path id="Tricep-6" data-name="Tricep" class="cls-7" d="M1099.16,326.49c2.59,6.54,5.51,13,7.62,19.66a16.79,16.79,0,0,1-.07,9.4c-3,9.71-6.48,19.26-9.87,28.85-.3.86-1.23,1.49-1.87,2.23-.76-.74-1.91-1.36-2.2-2.26a30.05,30.05,0,0,1-1.77-7.64c-.82-16.85,2.29-33.19,6.81-49.31a2.78,2.78,0,0,1,.42-.67Z" transform="translate(-453.46 -68.75)"/></g><g id="Hamstrings" data-part="Hamstrings"><path id="Hamstring" class="cls-15" d="M1149.89,742.89c1-8.12,1.58-16.31,3.06-24.34,4.13-22.54,5.52-45.25,5.44-68.11-.06-16.7-.18-33.41.17-50.1.18-8.93,1.12-17.86,2.11-26.74.23-2.05,2.06-3.93,3.15-5.89,1.72,1.31,3.75,2.37,5.11,4,4.85,5.71,9,11.9,11.12,19.2a21.27,21.27,0,0,1,.94,6.61c-.52,12.71-1,25.43-1.9,38.12-.86,12.87-.95,25.94-3.41,38.52-4.2,21.49-10.82,42.38-20.87,62-1.25,2.46-2.93,4.69-4.41,7Z" transform="translate(-453.46 -68.75)"/><path id="Hamstring-2" data-name="Hamstring" class="cls-5" d="M1308.21,742.75c-1.32-2.11-2.76-4.15-3.94-6.34-7.37-13.7-11.65-28.55-16.45-43.25-6.61-20.19-7.46-41-8.11-61.95-.35-11.39-1.53-22.75-1.77-34.13a22.07,22.07,0,0,1,2.77-10.75,170.3,170.3,0,0,1,11.38-17.1c1.88-2.58,4.41-2.13,5.17,1a71.13,71.13,0,0,1,2.43,15c.46,19.79.31,39.59.79,59.37.42,17.14,1,34.29,2.26,51.37.87,11.52,3.15,22.93,4.75,34.4.55,4,1,8,1.44,12Z" transform="translate(-453.46 -68.75)"/><path id="Hamstring-3" data-name="Hamstring" class="cls-8" d="M1189.16,590.08c7,9,10.26,18.76,12.22,29.07,1.86,9.82,1.59,19.26-1.75,28.91-4.83,13.94-6.41,28.66-8.46,43.22q-3.12,22.1-6.22,44.21A30.72,30.72,0,0,1,1184,739l-1,.15c-.72-2.69-1.89-5.34-2.06-8.07-.74-11.55-1.75-23.14-1.59-34.7.25-17.42,1.13-34.85,2.25-52.24.91-14.1,2.39-28.17,4-42.22C1186.06,598.06,1187.83,594.39,1189.16,590.08Z" transform="translate(-453.46 -68.75)"/><path id="Hamstring-4" data-name="Hamstring" class="cls-8" d="M1269.23,590.62c3.41,5.55,4.41,11.43,5,17.43,3.31,33.32,5.75,66.69,5.27,100.2-.12,8.08-1,16.16-1.78,24.22-.21,2.25-1.21,4.43-1.85,6.64h-1.19c-.87-4.81-1.87-9.6-2.6-14.44-3.27-21.79-6.39-43.62-9.74-65.4a54.31,54.31,0,0,0-3.18-11.7c-3.43-8.65-3.54-17.41-2-26.41,1.75-10.13,4.6-19.81,10.52-28.38Z" transform="translate(-453.46 -68.75)"/><path id="Hamstring-5" data-name="Hamstring" class="cls-9" d="M1307.37,684.59c.16-3,.09-5.93.53-8.83,1.82-12.07.75-24.12-.57-36.09-2.31-20.85-2.68-41.61,2.14-62.12,1.71-7.3,4.67-14.31,7.17-21.41a17.63,17.63,0,0,1,2.13-3.39l.77.16a8.57,8.57,0,0,1,.62,2.23c0,13.47.12,27-.26,40.41-.3,10.54-1.11,21.08-2,31.59-1.48,17.84-2.63,35.74-8,53-.48,1.57-1.11,3.08-1.68,4.62Z" transform="translate(-453.46 -68.75)"/><path id="Hamstring-6" data-name="Hamstring" class="cls-9" d="M1150.39,684.88c-1.31-4.66-3.05-9.24-3.85-14-1.77-10.49-3.49-21-4.48-31.6-2.27-24.2-3.89-48.46-3.67-72.8,0-3.3.07-6.6.22-9.9a26.31,26.31,0,0,1,.69-3.69l.9-.2a42.32,42.32,0,0,1,2.66,4.66c8.52,20.29,11.3,41.56,10.25,63.36-.63,13.17-2.16,26.29-2.79,39.46-.3,6.07.58,12.2.92,18.31q.16,3,.31,6.11Z" transform="translate(-453.46 -68.75)"/><path id="Hamstring-7" data-name="Hamstring" class="cls-10" d="M1208.57,644.4c5-21,.08-39.8-12.51-57.62l16.73-1.76c.28,0,.56.06.84.06,6.24-.13,8-.18,7.28,8.49-1.2,15-4.88,29.52-9.13,43.91-.69,2.31-1.5,4.59-2.26,6.89Z" transform="translate(-453.46 -68.75)"/><path id="Hamstring-8" data-name="Hamstring" class="cls-10" d="M1262.4,587.39c-12.05,17.15-16.94,35.89-12.08,56.76l-.79.12c-.35-.85-.77-1.68-1-2.55-4.7-14.74-8.46-29.71-10.21-45.11a65.15,65.15,0,0,1-.17-7.91,3.19,3.19,0,0,1,2.78-3.4C1244.37,584.6,1258.21,585.51,1262.4,587.39Z" transform="translate(-453.46 -68.75)"/><path id="Hamstring-9" data-name="Hamstring" class="cls-16" d="M1191.39,751.06c.74-8.91,1.53-17.81,2.2-26.73a78.44,78.44,0,0,0,.41-10.72c-.82-13.73,1.79-27,4.91-40.24,2.63-11.17,5-22.38,7.37-32.84,2.44,9.65,2.23,15-.72,27-2,8.31-4.16,16.65-5.46,25.09-1.1,7.14-.69,14.5-1.66,21.67-1.47,10.9-3.53,21.72-5.42,32.55a28.87,28.87,0,0,1-1.41,4.24Z" transform="translate(-453.46 -68.75)"/><path id="Hamstring-10" data-name="Hamstring" class="cls-16" d="M1252.61,640.13c3.81,17.53,7.66,34.49,11.1,51.54,1,4.83.8,9.9,1.11,14.87q1.28,20.3,2.51,40.6a7.36,7.36,0,0,1-.34,3.52c-.94-3.44-2.28-6.82-2.74-10.32-1.73-13.15-3.61-26.31-4.6-39.53-.74-9.95-2.91-19.53-5.23-29.14-.84-3.48-1.54-7-2.47-10.45C1250.08,654.25,1251.58,647.43,1252.61,640.13Z" transform="translate(-453.46 -68.75)"/></g><g id="Forearms" data-part="Arms"><path id="Forearm" class="cls-15" d="M825.37,385.46c.26-3.32.37-7.2.92-11,.6-4.11,2.11-4.63,5.42-2.18,4.67,3.46,7.61,8.3,10.35,13.28s5.76,9.58,7.87,14.68a39.47,39.47,0,0,1,3.12,13.07c.73,17.74,5.67,34.75,8.6,52.09,1.93,11.41,4.48,22.71,6.62,34.09a33.73,33.73,0,0,1,.35,7c0,.9-.76,1.78-1.17,2.67-.81-.52-2-.84-2.38-1.58a101.61,101.61,0,0,1-5.42-10.85c-9.83-24.8-19.84-49.53-29.08-74.54-2.66-7.21-3.15-15.26-4.3-23C825.62,394.9,825.67,390.43,825.37,385.46Z" transform="translate(-453.46 -68.75)"/><path id="Forearm-2" data-name="Forearm" class="cls-15" d="M554.1,383.76c-.54,13.08-.9,24.39-4.17,35.17-2.7,8.9-6.59,17.45-10,26.13q-11.07,28.17-22.22,56.29a45.35,45.35,0,0,1-3.86,6.89,2.25,2.25,0,0,1-1.83.93,2.08,2.08,0,0,1-1.07-1.7c.38-5.33.45-10.74,1.46-16,4-20.63,8.48-41.16,12.4-61.8,1.25-6.54,1.31-13.31,2-20a28.25,28.25,0,0,1,4.09-12.2c3.73-6.11,6.87-12.58,10.74-18.6,1.83-2.85,4.63-5.16,7.26-7.38,1.89-1.6,3.4-1,3.85,1.43C553.47,377.14,553.81,381.37,554.1,383.76Z" transform="translate(-453.46 -68.75)"/><path id="Forearm-3" data-name="Forearm" class="cls-10" d="M569.4,401.44c-.37,11.15-3.19,21.61-8.7,30.51-13.58,21.94-23.67,45.42-33.31,69.18a33.77,33.77,0,0,1-3.83,6.23,2.07,2.07,0,0,1-1.86.73,2.26,2.26,0,0,1-.91-1.84,14.09,14.09,0,0,1,.75-4.14c6.62-17.65,13.13-35.33,20-52.87,3.38-8.58,8-16.71,11.08-25.38,2.65-7.4,3.9-15.29,5.85-22.95a29.2,29.2,0,0,1,2.08-5.84,5.36,5.36,0,0,1,2.57-2.38c3.74-1.53,5.08-.74,5.72,3.2C569.18,397.84,569.25,399.82,569.4,401.44Z" transform="translate(-453.46 -68.75)"/><path id="Forearm-4" data-name="Forearm" class="cls-10" d="M810,401.87a36.75,36.75,0,0,1,.5-5.92c.34-1.35,1.17-3.37,2.14-3.62,2.16-.53,4.73-.2,5.86,2.24a28.86,28.86,0,0,1,2.67,7.7c2.23,15.12,8.57,28.73,14.55,42.59,6.79,15.72,12.52,31.9,18.67,47.9,1.38,3.6,2.75,7.23,3.77,10.94.38,1.36-.25,3-.43,4.5-1.17-.94-2.77-1.63-3.44-2.85-1.86-3.36-3.39-6.92-5-10.44-6.65-14.87-13.06-29.85-20-44.58-2.76-5.85-7-10.95-10-16.73C814.27,423.57,810.52,413,810,401.87Z" transform="translate(-453.46 -68.75)"/><path id="Forearm-5" data-name="Forearm" class="cls-17" d="M572.13,401.66c5.24,3.65,6.06,5.36,3.8,10.46-5,11.35-9.73,22.93-15.79,33.72-8.19,14.6-14.63,29.94-21.45,45.14-2.82,6.26-6,12.37-9,18.53a4.56,4.56,0,0,1-2,2.06,3.81,3.81,0,0,1,0-1.17c6-17.56,12.63-34.89,21-51.46a93.48,93.48,0,0,1,6.59-10.52,96.33,96.33,0,0,0,16.23-42.89C571.65,404.35,571.88,403.18,572.13,401.66Z" transform="translate(-453.46 -68.75)"/><path id="Forearm-6" data-name="Forearm" class="cls-17" d="M807.21,401.87c.86,4.78,1.42,9.37,2.54,13.82,3.07,12.25,7.76,23.76,15.35,34,7.4,10,11.77,21.67,16.33,33.15,3.4,8.58,6.51,17.28,9.74,25.93.3.83.45,1.72.67,2.57l-.66.3a20.12,20.12,0,0,1-1.58-2.46c-6.66-14.47-13.15-29-20-43.4-3.3-7-7.45-13.55-10.81-20.5-5.37-11.1-10.52-22.32-15.54-33.6C801.19,407,802.22,405,807.21,401.87Z" transform="translate(-453.46 -68.75)"/><path id="Forearm-7" data-name="Forearm" class="cls-11" d="M1383.37,397.88c5.29,38.37,9.21,77,18.78,115.58a16.07,16.07,0,0,1-2.31-2.33c-10.59-17.9-19.77-36.46-25.33-56.58-2.19-7.91-1.17-16.12-.34-24.19a85,85,0,0,1,2-12.83c1.77-6.69,4.09-13.23,6.18-19.84Z" transform="translate(-453.46 -68.75)"/><path id="Forearm-8" data-name="Forearm" class="cls-7" d="M1075.59,397.71c5.94,10.32,8.27,21.15,9.07,32.3.52,7.11,1.29,14.46.1,21.38a98.8,98.8,0,0,1-7.41,23c-5.25,11.87-11.36,23.36-17.18,35a11.76,11.76,0,0,1-2.81,3.37C1066.19,474.92,1070.3,436.44,1075.59,397.71Z" transform="translate(-453.46 -68.75)"/><path id="Forearm-9" data-name="Forearm" class="cls-14" d="M1065.55,508.31c3.07-6.65,6.56-13.15,9.13-20,5.67-15.07,10.88-30.31,16.28-45.47,2.78-7.8,5.51-15.63,8.41-23.38,1.87-5,5.72-7.3,11-7.36,2.64,0,3.14.55,2.08,3-4.81,11.25-9.4,22.6-14.67,33.63-7.47,15.64-15.38,31.07-23.28,46.49-2.09,4.09-4.79,7.87-7.28,11.75-.35.55-1.1.85-1.67,1.26Z" transform="translate(-453.46 -68.75)"/><path id="Forearm-10" data-name="Forearm" class="cls-14" d="M1392.08,507.4a22.23,22.23,0,0,1-2.33-3q-7.45-14.12-14.78-28.31c-5-9.71-10.28-19.31-14.88-29.21-4.88-10.5-9.11-21.31-13.62-32-.85-2-.08-2.75,2-2.8,5.6-.13,9.54,2.57,11.61,8.53,5,14.5,9.68,29.16,15,43.55,4.77,12.79,10.28,25.3,15.49,37.92.67,1.63,1.45,3.21,2.18,4.81Z" transform="translate(-453.46 -68.75)"/><path id="Forearm-11" data-name="Forearm" class="cls-18" d="M1045.86,511.29c11.74-33.87,14.74-69.57,21.69-104.66,2.47,1,2.57,2.82,2.44,4.57-.52,7.33-.85,14.68-1.78,22-1.86,14.46-3.73,28.94-6.23,43.3-2,11.26-5.3,22.19-12.2,31.63a44.41,44.41,0,0,1-3.34,3.67Z" transform="translate(-453.46 -68.75)"/><path id="Forearm-12" data-name="Forearm" class="cls-18" d="M1391.25,406.3c7.15,35.19,10,70.87,21.73,104.71l-.75.48a56.72,56.72,0,0,1-4-4.66,65.78,65.78,0,0,1-10.38-26.41c-2.93-16.78-5.12-33.69-7.43-50.57-.81-5.88-1.11-11.82-1.55-17.74C1388.71,410.06,1388.78,408,1391.25,406.3Z" transform="translate(-453.46 -68.75)"/><path id="Forearm-13" data-name="Forearm" class="cls-12" d="M1372.56,386.14c-.31,3.32-.8,6.64-.89,10-.15,5.74.09,11.49-.09,17.23-.14,4.45-.73,8.85-4.79,12.78-1.66-2.58-3.82-4.78-4.58-7.38a110.84,110.84,0,0,1-2.9-14.86,5.78,5.78,0,0,1,1-4c3.74-4.77,7.71-9.35,11.6-14Z" transform="translate(-453.46 -68.75)"/><path id="Forearm-14" data-name="Forearm" class="cls-10" d="M1091.51,426.26c-1.27-2.59-2.89-4.62-3.21-6.85-.65-4.52-.6-9.15-.84-13.73q-.4-7.89-.82-15.77c-.07-1.21-.12-2.41-.22-4.26.94.89,1.47,1.32,1.91,1.82,2.1,2.42,3.94,5.12,6.29,7.25a14.33,14.33,0,0,1,4.92,13.38C1098.72,414.68,1096.91,420.74,1091.51,426.26Z" transform="translate(-453.46 -68.75)"/></g></svg>